<?xml version="1.0" encoding="UTF-8" standalone="no"?><!DOCTYPE svg PUBLIC "-//W3C//DTD SVG 1.1//EN" "http://www.w3.org/Graphics/SVG/1.1/DTD/svg11.dtd"><svg width="100%" height="100%" viewBox="0 0 2509 2800" version="1.1" xmlns="http://www.w3.org/2000/svg" xmlns:xlink="http://www.w3.org/1999/xlink" xml:space="preserve" xmlns:serif="http://www.serif.com/" style="fill-rule:evenodd;clip-rule:evenodd;stroke-miterlimit:8;"><g><clipPath id="_clip1"><rect x="0" y="0" width="2508.33" height="2800"/></clipPath><g clip-path="url(#_clip1)"><rect x="6.25" y="239.584" width="1250" height="1104.17" style="fill:#fff;stroke:#2f528f;stroke-width:4.17px;"/><g><path d="M186.671,431.901c-3.472,0.955 -6.836,1.649 -10.091,2.083c-3.256,0.434 -6.749,0.651 -10.482,0.651c-5.382,0 -9.722,-0.954 -13.021,-2.864c-3.299,-1.91 -5.729,-4.861 -7.292,-8.854c-1.562,-3.993 -2.343,-9.202 -2.343,-15.625l0,-60.157l-20.313,0l0,-11.458l34.115,0l0,70.964c0,3.906 0.358,6.955 1.074,9.147c0.716,2.192 2.083,3.819 4.102,4.883c2.018,1.063 4.98,1.595 8.886,1.595c1.91,0 3.961,-0.196 6.153,-0.586c2.191,-0.391 4.741,-1.02 7.649,-1.888l1.563,12.109Z" style="fill-rule:nonzero;"/><path d="M234.935,434.635c-6.337,0 -11.773,-1.399 -16.309,-4.199c-4.536,-2.799 -7.986,-6.879 -10.352,-12.239c-2.365,-5.361 -3.548,-11.817 -3.548,-19.369c0,-7.552 1.183,-14.008 3.548,-19.368c2.366,-5.361 5.816,-9.44 10.352,-12.24c4.536,-2.799 9.972,-4.199 16.309,-4.199c6.336,0 11.773,1.4 16.308,4.199c4.536,2.8 7.986,6.879 10.352,12.24c2.365,5.36 3.548,11.816 3.548,19.368c0,7.552 -1.183,14.008 -3.548,19.369c-2.366,5.36 -5.816,9.44 -10.352,12.239c-4.535,2.8 -9.972,4.199 -16.308,4.199Zm0,-12.369c5.078,0 8.995,-2.029 11.751,-6.088c2.756,-4.058 4.134,-9.841 4.134,-17.35c0,-7.509 -1.378,-13.292 -4.134,-17.35c-2.756,-4.058 -6.673,-6.087 -11.751,-6.087c-5.079,0 -8.996,2.029 -11.752,6.087c-2.756,4.058 -4.134,9.841 -4.134,17.35c0,7.509 1.378,13.292 4.134,17.35c2.756,4.059 6.673,6.088 11.752,6.088Z" style="fill-rule:nonzero;"/><path d="M318.398,434.635c-7.552,0 -13.976,-1.388 -19.271,-4.166c-5.295,-2.778 -9.331,-6.847 -12.109,-12.207c-2.778,-5.361 -4.167,-11.882 -4.167,-19.564c0,-7.509 1.281,-13.932 3.841,-19.271c2.561,-5.338 6.315,-9.407 11.263,-12.207c4.948,-2.799 10.938,-4.199 17.969,-4.199c3.733,0 7.52,0.434 11.361,1.302c3.841,0.868 7.465,3.114 10.872,6.738c3.407,3.624 5.111,9.147 5.111,16.569l-14.193,0c0,-3.863 -1.15,-6.868 -3.45,-9.017c-2.301,-2.148 -5.491,-3.222 -9.571,-3.222c-5.989,0 -10.633,1.974 -13.932,5.924c-3.299,3.95 -4.948,9.527 -4.948,16.732c0,7.856 1.964,13.856 5.892,18.001c3.928,4.145 9.56,6.218 16.895,6.218c6.51,0 13.281,-0.565 20.312,-1.693l1.563,12.109c-6.294,1.302 -14.106,1.953 -23.438,1.953Z" style="fill-rule:nonzero;"/><path d="M409.284,433.333l-16.602,-28.385c-3.038,0.608 -6.142,0.911 -9.31,0.911l-7.031,0l0,27.474l-13.802,0l0,-97.656l13.802,0l0,57.813l3.776,0c5.816,0 10.547,-0.955 14.193,-2.865c3.645,-1.91 6.521,-4.97 8.626,-9.18c2.105,-4.21 3.657,-9.917 4.655,-17.122l14.323,0c-2.214,16.71 -7.661,28.342 -16.341,34.896l20.768,34.114l-17.057,0Z" style="fill-rule:nonzero;"/><path d="M492.096,447.656c-9.375,0 -17.394,-2.387 -24.056,-7.161c-6.662,-4.775 -11.74,-11.719 -15.234,-20.834c-3.494,-9.114 -5.241,-20.095 -5.241,-32.942c0,-12.674 1.747,-23.514 5.241,-32.52c3.494,-9.006 8.572,-15.863 15.234,-20.573c6.662,-4.709 14.681,-7.064 24.056,-7.064l3.125,0l-1.302,11.068l-0.521,0c-6.944,0 -12.869,1.921 -17.773,5.762c-4.905,3.841 -8.637,9.44 -11.198,16.797c-2.561,7.357 -3.841,16.2 -3.841,26.53c0,10.503 1.28,19.488 3.841,26.953c2.561,7.465 6.293,13.151 11.198,17.057c4.904,3.906 10.829,5.86 17.773,5.86l0.521,0l1.302,11.067l-3.125,0Z" style="fill-rule:nonzero;"/><path d="M565.534,363.021c4.774,0 8.246,1.28 10.416,3.841c2.17,2.561 3.255,6.706 3.255,12.435l0,54.036l-13.802,0l0,-52.734c0,-2.431 -0.434,-4.232 -1.302,-5.404c-0.868,-1.172 -2.213,-1.757 -4.036,-1.757c-4.514,0 -6.771,3.125 -6.771,9.375l0,50.52l-11.719,0l0,-54.036c0,-3.906 -1.823,-5.859 -5.469,-5.859c-4.427,0 -6.64,3.125 -6.64,9.375l0,50.52l-13.802,0l0,-69.01l12.239,0l0.912,8.594l1.041,0c0.261,-3.342 1.357,-5.827 3.288,-7.455c1.932,-1.627 4.785,-2.441 8.561,-2.441c2.952,0 5.382,0.835 7.292,2.506c1.91,1.671 3.19,4.134 3.841,7.39l1.107,0c0.217,-2.822 1.335,-5.176 3.353,-7.064c2.018,-1.888 4.763,-2.832 8.236,-2.832Z" style="fill-rule:nonzero;"/><path d="M601.471,436.589c6.944,0 12.869,-1.954 17.773,-5.86c4.905,-3.906 8.638,-9.592 11.198,-17.057c2.561,-7.465 3.842,-16.45 3.842,-26.953c0,-10.33 -1.281,-19.173 -3.842,-26.53c-2.56,-7.357 -6.293,-12.956 -11.198,-16.797c-4.904,-3.841 -10.829,-5.762 -17.773,-5.762l-0.521,0l-1.302,-11.067l3.125,0c9.375,0 17.394,2.354 24.056,7.063c6.662,4.71 11.741,11.567 15.234,20.573c3.494,9.006 5.241,19.846 5.241,32.52c0,12.847 -1.747,23.828 -5.241,32.942c-3.493,9.115 -8.572,16.059 -15.234,20.834c-6.662,4.774 -14.681,7.161 -24.056,7.161l-3.125,0l1.302,-11.067l0.521,0Z" style="fill-rule:nonzero;"/><path d="M703.685,382.292c-1.737,0 -3.342,-0.434 -4.818,-1.302c-1.476,-0.868 -2.648,-2.04 -3.516,-3.516c-0.868,-1.476 -1.302,-3.082 -1.302,-4.818c0,-1.736 0.434,-3.342 1.302,-4.817c0.868,-1.476 2.04,-2.648 3.516,-3.516c1.476,-0.868 3.081,-1.302 4.818,-1.302c1.736,0 3.342,0.434 4.817,1.302c1.476,0.868 2.648,2.04 3.516,3.516c0.868,1.475 1.302,3.081 1.302,4.817c0,1.736 -0.434,3.342 -1.302,4.818c-0.868,1.476 -2.04,2.648 -3.516,3.516c-1.475,0.868 -3.081,1.302 -4.817,1.302Zm7.421,34.505l-7.812,41.667l-12.5,0l5.208,-41.667l15.104,0Z" style="fill-rule:nonzero;"/><path d="M186.41,591.406c-6.119,1.042 -12.152,1.563 -18.099,1.563c-7.031,0 -12.717,-0.955 -17.057,-2.865c-4.34,-1.91 -7.53,-4.861 -9.57,-8.854c-2.04,-3.993 -3.06,-9.201 -3.06,-15.625l0,-31.51l-17.318,0l0,-11.459l17.318,0l0,-20.833l13.802,0l0,20.833l31.38,0l0,11.459l-31.38,0l0,30.859c0,5.512 1.346,9.494 4.036,11.947c2.691,2.452 7.075,3.678 13.152,3.678c1.996,0 4.134,-0.109 6.412,-0.326c2.279,-0.217 5.219,-0.542 8.822,-0.976l1.562,12.109Z" style="fill-rule:nonzero;"/><path d="M280.855,523.177l65.104,0l0,12.109l-65.104,0l0,-12.109Zm0,32.552l65.104,0l0,12.11l-65.104,0l0,-12.11Z" style="fill-rule:nonzero;"/><path d="M502.513,522.656l-25,34.375l25,34.636l-15.625,0l-16.862,-23.959l-16.211,23.959l-15.625,0l24.674,-34.115l-24.674,-34.896l15.625,0l16.536,24.154l16.537,-24.154l15.625,0Z" style="fill-rule:nonzero;"/><path d="M659.848,539.388l0,12.109l-26.302,0l0,27.8l-12.5,0l0,-27.8l-26.302,0l0,-12.109l26.302,0l0,-27.669l12.5,0l0,27.669l26.302,0Z" style="fill-rule:nonzero;"/><path d="M793.096,579.557l20.573,0l0,12.11l-57.422,0l0,-12.11l23.047,0l0,-67.578l-21.745,4.948l0,-12.5l21.745,-5.208l13.802,0l0,80.338Z" style="fill-rule:nonzero;"/><path d="M862.367,540.625c-1.736,0 -3.342,-0.434 -4.818,-1.302c-1.476,-0.868 -2.648,-2.04 -3.516,-3.516c-0.868,-1.475 -1.302,-3.081 -1.302,-4.817c0,-1.737 0.434,-3.342 1.302,-4.818c0.868,-1.476 2.04,-2.648 3.516,-3.516c1.476,-0.868 3.082,-1.302 4.818,-1.302c1.736,0 3.342,0.434 4.817,1.302c1.476,0.868 2.648,2.04 3.516,3.516c0.868,1.476 1.302,3.081 1.302,4.818c0,1.736 -0.434,3.342 -1.302,4.817c-0.868,1.476 -2.04,2.648 -3.516,3.516c-1.475,0.868 -3.081,1.302 -4.817,1.302Zm7.422,34.505l-7.813,41.667l-12.5,0l5.208,-41.667l15.105,0Z" style="fill-rule:nonzero;"/><path d="M188.624,685.156l-25,34.375l25,34.636l-15.625,0l-16.862,-23.959l-16.211,23.959l-15.625,0l24.675,-34.115l-24.675,-34.896l15.625,0l16.536,24.154l16.537,-24.154l15.625,0Z" style="fill-rule:nonzero;"/><path d="M280.855,685.677l65.104,0l0,12.109l-65.104,0l0,-12.109Zm0,32.552l65.104,0l0,12.11l-65.104,0l0,-12.11Z" style="fill-rule:nonzero;"/><path d="M500.299,753.906c-6.12,1.042 -12.153,1.563 -18.099,1.563c-7.031,0 -12.717,-0.955 -17.057,-2.865c-4.34,-1.91 -7.53,-4.861 -9.57,-8.854c-2.04,-3.993 -3.06,-9.201 -3.06,-15.625l0,-31.51l-17.318,0l0,-11.459l17.318,0l0,-20.833l13.802,0l0,20.833l31.38,0l0,11.459l-31.38,0l0,30.859c0,5.512 1.345,9.494 4.036,11.947c2.691,2.452 7.075,3.678 13.151,3.678c1.997,0 4.134,-0.109 6.413,-0.326c2.279,-0.217 5.219,-0.542 8.822,-0.976l1.562,12.109Z" style="fill-rule:nonzero;"/><path d="M548.476,703.125c-1.736,0 -3.342,-0.434 -4.817,-1.302c-1.476,-0.868 -2.648,-2.04 -3.516,-3.516c-0.868,-1.475 -1.302,-3.081 -1.302,-4.817c0,-1.737 0.434,-3.342 1.302,-4.818c0.868,-1.476 2.04,-2.648 3.516,-3.516c1.475,-0.868 3.081,-1.302 4.817,-1.302c1.736,0 3.342,0.434 4.818,1.302c1.476,0.868 2.648,2.04 3.516,3.516c0.868,1.476 1.302,3.081 1.302,4.818c0,1.736 -0.434,3.342 -1.302,4.817c-0.868,1.476 -2.04,2.648 -3.516,3.516c-1.476,0.868 -3.082,1.302 -4.818,1.302Zm7.422,34.505l-7.812,41.667l-12.5,0l5.208,-41.667l15.104,0Z" style="fill-rule:nonzero;"/><path d="M192.791,1222.27l0,11.067l-22.136,0.651l-0.976,-13.932l-1.237,0c-1.042,4.688 -3.028,8.29 -5.957,10.807c-2.93,2.518 -6.543,3.776 -10.84,3.776c-7.683,0 -13.618,-2.148 -17.806,-6.445c-4.189,-4.297 -6.283,-10.395 -6.283,-18.294l0,-46.875l13.542,0l0,46.875c0,4.167 1.15,7.378 3.45,9.635c2.301,2.257 5.534,3.386 9.701,3.386c5.121,0 8.941,-1.682 11.458,-5.046c2.518,-3.364 3.776,-8.843 3.776,-16.439l0,-38.411l13.802,0l0,57.812l9.506,1.433Z" style="fill-rule:nonzero;"/><path d="M239.796,1163.02c7.291,0 12.934,2.213 16.927,6.64c3.993,4.428 5.989,10.678 5.989,18.75l0,44.922l-13.802,0l0,-44.922c0,-4.34 -1.085,-7.704 -3.255,-10.091c-2.17,-2.387 -5.208,-3.58 -9.114,-3.58c-10.851,0 -16.276,6.597 -16.276,19.791l0,38.802l-13.803,0l0,-69.01l12.5,0l1.107,12.5l1.498,0c0.39,-4.644 2.083,-8.106 5.078,-10.384c2.995,-2.279 7.378,-3.418 13.151,-3.418Z" style="fill-rule:nonzero;"/><path d="M342.921,1231.9c-3.472,0.955 -6.836,1.649 -10.091,2.083c-3.256,0.434 -6.749,0.651 -10.482,0.651c-5.382,0 -9.722,-0.954 -13.021,-2.864c-3.299,-1.91 -5.729,-4.861 -7.292,-8.854c-1.562,-3.993 -2.343,-9.202 -2.343,-15.625l0,-60.157l-20.313,0l0,-11.458l34.115,0l0,70.964c0,3.906 0.358,6.955 1.074,9.147c0.716,2.192 2.083,3.819 4.102,4.883c2.018,1.063 4.98,1.595 8.886,1.595c1.91,0 3.961,-0.196 6.153,-0.586c2.191,-0.391 4.741,-1.02 7.649,-1.888l1.563,12.109Z" style="fill-rule:nonzero;"/><path d="M390.837,1234.63c-6.336,0 -11.773,-1.399 -16.308,-4.199c-4.536,-2.799 -7.986,-6.879 -10.352,-12.239c-2.365,-5.361 -3.548,-11.817 -3.548,-19.369c0,-7.552 1.183,-14.008 3.548,-19.368c2.366,-5.361 5.816,-9.44 10.352,-12.24c4.535,-2.799 9.972,-4.199 16.308,-4.199c6.337,0 11.774,1.4 16.309,4.199c4.536,2.8 7.986,6.879 10.352,12.24c2.365,5.36 3.548,11.816 3.548,19.368c0,7.552 -1.183,14.008 -3.548,19.369c-2.366,5.36 -5.816,9.44 -10.352,12.239c-4.535,2.8 -9.972,4.199 -16.309,4.199Zm0,-12.369c5.079,0 8.996,-2.029 11.752,-6.088c2.756,-4.058 4.134,-9.841 4.134,-17.35c0,-7.509 -1.378,-13.292 -4.134,-17.35c-2.756,-4.058 -6.673,-6.087 -11.752,-6.087c-5.078,0 -8.995,2.029 -11.751,6.087c-2.756,4.058 -4.134,9.841 -4.134,17.35c0,7.509 1.378,13.292 4.134,17.35c2.756,4.059 6.673,6.088 11.751,6.088Z" style="fill-rule:nonzero;"/><path d="M474.301,1234.63c-7.552,0 -13.976,-1.388 -19.271,-4.166c-5.295,-2.778 -9.331,-6.847 -12.109,-12.207c-2.778,-5.361 -4.167,-11.882 -4.167,-19.564c0,-7.509 1.281,-13.932 3.841,-19.271c2.561,-5.338 6.315,-9.407 11.263,-12.207c4.948,-2.799 10.938,-4.199 17.969,-4.199c3.733,0 7.52,0.434 11.361,1.302c3.841,0.868 7.465,3.114 10.872,6.738c3.407,3.624 5.111,9.147 5.111,16.569l-14.193,0c0,-3.863 -1.15,-6.868 -3.45,-9.017c-2.301,-2.148 -5.491,-3.222 -9.571,-3.222c-5.989,0 -10.633,1.974 -13.932,5.924c-3.299,3.95 -4.948,9.527 -4.948,16.732c0,7.856 1.964,13.856 5.892,18.001c3.928,4.145 9.559,6.218 16.895,6.218c6.51,0 13.281,-0.565 20.312,-1.693l1.563,12.109c-6.294,1.302 -14.106,1.953 -23.438,1.953Z" style="fill-rule:nonzero;"/><path d="M565.186,1233.33l-16.601,-28.385c-3.038,0.608 -6.142,0.911 -9.31,0.911l-7.031,0l0,27.474l-13.802,0l0,-97.656l13.802,0l0,57.813l3.776,0c5.816,0 10.547,-0.955 14.192,-2.865c3.646,-1.91 6.522,-4.97 8.627,-9.18c2.105,-4.21 3.656,-9.917 4.655,-17.122l14.323,0c-2.214,16.71 -7.661,28.342 -16.341,34.896l20.768,34.114l-17.058,0Z" style="fill-rule:nonzero;"/><path d="M650.082,1247.66c-9.375,0 -17.393,-2.387 -24.056,-7.161c-6.662,-4.775 -11.74,-11.719 -15.234,-20.834c-3.494,-9.114 -5.241,-20.095 -5.241,-32.942c0,-12.674 1.747,-23.514 5.241,-32.52c3.494,-9.006 8.572,-15.863 15.234,-20.573c6.663,-4.709 14.681,-7.063 24.056,-7.063l3.125,0l-1.302,11.067l-0.521,0c-6.944,0 -12.869,1.921 -17.773,5.762c-4.905,3.841 -8.637,9.44 -11.198,16.797c-2.561,7.357 -3.841,16.2 -3.841,26.53c0,10.503 1.28,19.488 3.841,26.953c2.561,7.465 6.293,13.151 11.198,17.057c4.904,3.906 10.829,5.86 17.773,5.86l0.521,0l1.302,11.067l-3.125,0Z" style="fill-rule:nonzero;"/><path d="M723.52,1163.02c4.774,0 8.246,1.28 10.416,3.841c2.171,2.561 3.256,6.706 3.256,12.435l0,54.036l-13.802,0l0,-52.734c0,-2.431 -0.434,-4.232 -1.303,-5.404c-0.868,-1.172 -2.213,-1.757 -4.036,-1.757c-4.514,0 -6.771,3.125 -6.771,9.375l0,50.52l-11.719,0l0,-54.036c0,-3.906 -1.822,-5.859 -5.468,-5.859c-4.427,0 -6.641,3.125 -6.641,9.375l0,50.52l-13.802,0l0,-69.01l12.24,0l0.911,8.594l1.042,0c0.26,-3.342 1.356,-5.827 3.287,-7.455c1.932,-1.627 4.786,-2.441 8.562,-2.441c2.951,0 5.382,0.835 7.291,2.506c1.91,1.671 3.19,4.134 3.841,7.39l1.107,0c0.217,-2.822 1.335,-5.176 3.353,-7.064c2.018,-1.888 4.764,-2.832 8.236,-2.832Z" style="fill-rule:nonzero;"/><path d="M759.457,1236.59c6.945,0 12.869,-1.954 17.774,-5.86c4.904,-3.906 8.637,-9.592 11.198,-17.057c2.56,-7.465 3.841,-16.45 3.841,-26.953c0,-10.33 -1.281,-19.173 -3.841,-26.53c-2.561,-7.357 -6.294,-12.956 -11.198,-16.797c-4.905,-3.841 -10.829,-5.762 -17.774,-5.762l-0.521,0l-1.302,-11.067l3.125,0c9.375,0 17.394,2.354 24.056,7.063c6.663,4.71 11.741,11.567 15.235,20.573c3.494,9.006 5.241,19.846 5.241,32.52c0,12.847 -1.747,23.828 -5.241,32.942c-3.494,9.115 -8.572,16.059 -15.235,20.834c-6.662,4.774 -14.681,7.161 -24.056,7.161l-3.125,0l1.302,-11.067l0.521,0Z" style="fill-rule:nonzero;"/><path d="M861.671,1182.29c-1.736,0 -3.342,-0.434 -4.818,-1.302c-1.476,-0.868 -2.647,-2.04 -3.516,-3.516c-0.868,-1.476 -1.302,-3.082 -1.302,-4.818c0,-1.736 0.434,-3.342 1.302,-4.817c0.869,-1.476 2.04,-2.648 3.516,-3.516c1.476,-0.868 3.082,-1.302 4.818,-1.302c1.736,0 3.342,0.434 4.818,1.302c1.475,0.868 2.647,2.04 3.515,3.516c0.868,1.475 1.302,3.081 1.302,4.817c0,1.736 -0.434,3.342 -1.302,4.818c-0.868,1.476 -2.04,2.648 -3.515,3.516c-1.476,0.868 -3.082,1.302 -4.818,1.302Zm7.422,34.505l-7.813,41.667l-12.5,0l5.209,-41.667l15.104,0Z" style="fill-rule:nonzero;"/></g><rect x="1256.25" y="1689.58" width="1250" height="1104.17" style="fill:#fff;stroke:#2f528f;stroke-width:4.17px;"/><g><path d="M1436.15,1881.9c-3.472,0.955 -6.836,1.649 -10.091,2.083c-3.255,0.434 -6.749,0.651 -10.482,0.651c-5.382,0 -9.722,-0.954 -13.021,-2.864c-3.298,-1.91 -5.729,-4.861 -7.291,-8.854c-1.563,-3.993 -2.344,-9.202 -2.344,-15.625l0,-60.157l-20.313,0l0.001,-11.458l34.114,0l0,70.964c0,3.906 0.358,6.955 1.074,9.147c0.716,2.192 2.084,3.819 4.102,4.883c2.018,1.063 4.98,1.595 8.887,1.595c1.909,0 3.96,-0.196 6.152,-0.586c2.192,-0.391 4.742,-1.02 7.65,-1.888l1.562,12.109Z" style="fill-rule:nonzero;"/><path d="M1484.42,1884.63c-6.337,0 -11.773,-1.399 -16.309,-4.199c-4.535,-2.799 -7.986,-6.879 -10.351,-12.239c-2.366,-5.361 -3.548,-11.817 -3.548,-19.369c0,-7.552 1.182,-14.008 3.548,-19.368c2.365,-5.361 5.816,-9.44 10.351,-12.24c4.536,-2.799 9.972,-4.199 16.309,-4.199c6.337,0 11.773,1.4 16.309,4.199c4.535,2.8 7.986,6.879 10.351,12.24c2.366,5.36 3.548,11.816 3.548,19.368c0,7.552 -1.182,14.008 -3.548,19.369c-2.365,5.36 -5.816,9.44 -10.351,12.239c-4.536,2.8 -9.972,4.199 -16.309,4.199Zm0,-12.369c5.078,0 8.995,-2.029 11.751,-6.088c2.756,-4.058 4.134,-9.841 4.134,-17.35c0,-7.509 -1.378,-13.292 -4.134,-17.35c-2.756,-4.058 -6.673,-6.087 -11.751,-6.087c-5.078,0 -8.995,2.029 -11.751,6.087c-2.756,4.058 -4.134,9.841 -4.134,17.35c0,7.509 1.378,13.292 4.134,17.35c2.756,4.059 6.673,6.088 11.751,6.088Z" style="fill-rule:nonzero;"/><path d="M1567.88,1884.63c-7.552,0 -13.975,-1.388 -19.27,-4.166c-5.296,-2.778 -9.332,-6.847 -12.11,-12.207c-2.778,-5.361 -4.166,-11.882 -4.166,-19.564c0,-7.509 1.28,-13.932 3.841,-19.271c2.56,-5.338 6.315,-9.407 11.263,-12.207c4.948,-2.799 10.937,-4.199 17.969,-4.199c3.732,0 7.519,0.434 11.36,1.302c3.841,0.868 7.465,3.114 10.873,6.738c3.407,3.624 5.11,9.147 5.11,16.569l-14.192,0c0,-3.863 -1.151,-6.868 -3.451,-9.017c-2.3,-2.148 -5.49,-3.222 -9.57,-3.222c-5.99,0 -10.634,1.974 -13.933,5.924c-3.298,3.95 -4.947,9.527 -4.947,16.732c0,7.856 1.963,13.856 5.891,18.001c3.928,4.145 9.56,6.218 16.895,6.218c6.51,0 13.281,-0.565 20.312,-1.693l1.563,12.109c-6.293,1.302 -14.106,1.953 -23.438,1.953Z" style="fill-rule:nonzero;"/><path d="M1658.77,1883.33l-16.602,-28.385c-3.038,0.608 -6.141,0.911 -9.31,0.911l-7.031,0l0,27.474l-13.802,0l0,-97.656l13.802,0l0,57.813l3.776,0c5.816,0 10.547,-0.955 14.193,-2.865c3.646,-1.91 6.521,-4.97 8.626,-9.18c2.105,-4.21 3.657,-9.917 4.655,-17.122l14.323,0c-2.213,16.71 -7.661,28.342 -16.341,34.896l20.768,34.114l-17.057,0Z" style="fill-rule:nonzero;"/><path d="M1741.58,1897.66c-9.375,0 -17.393,-2.387 -24.056,-7.161c-6.662,-4.775 -11.74,-11.719 -15.234,-20.834c-3.494,-9.114 -5.241,-20.095 -5.241,-32.942c0,-12.674 1.747,-23.514 5.241,-32.52c3.494,-9.006 8.572,-15.863 15.234,-20.573c6.663,-4.709 14.681,-7.063 24.056,-7.063l3.125,0l-1.302,11.067l-0.521,0c-6.944,0 -12.868,1.921 -17.773,5.762c-4.904,3.841 -8.637,9.44 -11.198,16.797c-2.561,7.357 -3.841,16.2 -3.841,26.53c0,10.503 1.28,19.488 3.841,26.953c2.561,7.465 6.294,13.151 11.198,17.057c4.905,3.906 10.829,5.86 17.773,5.86l0.521,0l1.302,11.067l-3.125,0Z" style="fill-rule:nonzero;"/><path d="M1815.02,1813.02c4.774,0 8.246,1.28 10.417,3.841c2.17,2.561 3.255,6.706 3.255,12.435l0,54.036l-13.802,0l0,-52.734c0,-2.431 -0.434,-4.232 -1.302,-5.404c-0.868,-1.172 -2.214,-1.757 -4.037,-1.757c-4.514,0 -6.771,3.125 -6.771,9.375l0,50.52l-11.718,0l0,-54.036c0,-3.906 -1.823,-5.859 -5.469,-5.859c-4.427,0 -6.641,3.125 -6.641,9.375l0,50.52l-13.802,0l0,-69.01l12.24,0l0.911,8.594l1.042,0c0.26,-3.342 1.356,-5.827 3.288,-7.455c1.931,-1.627 4.785,-2.441 8.561,-2.441c2.951,0 5.382,0.835 7.291,2.506c1.91,1.671 3.191,4.134 3.842,7.39l1.106,0c0.217,-2.822 1.335,-5.176 3.353,-7.064c2.018,-1.888 4.764,-2.832 8.236,-2.832Z" style="fill-rule:nonzero;"/><path d="M1850.95,1886.59c6.945,0 12.869,-1.954 17.774,-5.86c4.904,-3.906 8.637,-9.592 11.198,-17.057c2.56,-7.465 3.841,-16.45 3.841,-26.953c0,-10.33 -1.281,-19.173 -3.841,-26.53c-2.561,-7.357 -6.294,-12.956 -11.198,-16.797c-4.905,-3.841 -10.829,-5.762 -17.774,-5.762l-0.52,0l-1.303,-11.067l3.125,0c9.375,0 17.394,2.354 24.056,7.063c6.663,4.71 11.741,11.567 15.235,20.573c3.494,9.006 5.241,19.846 5.241,32.52c0,12.847 -1.747,23.828 -5.241,32.942c-3.494,9.115 -8.572,16.059 -15.235,20.834c-6.662,4.774 -14.681,7.161 -24.056,7.161l-3.125,0l1.303,-11.067l0.52,0Z" style="fill-rule:nonzero;"/><path d="M1953.17,1832.29c-1.736,0 -3.342,-0.434 -4.818,-1.302c-1.475,-0.868 -2.647,-2.04 -3.515,-3.516c-0.868,-1.476 -1.302,-3.082 -1.302,-4.818c0,-1.736 0.434,-3.342 1.302,-4.817c0.868,-1.476 2.04,-2.648 3.515,-3.516c1.476,-0.868 3.082,-1.302 4.818,-1.302c1.736,0 3.342,0.434 4.818,1.302c1.475,0.868 2.647,2.04 3.515,3.516c0.868,1.475 1.302,3.081 1.302,4.817c0,1.736 -0.434,3.342 -1.302,4.818c-0.868,1.476 -2.04,2.648 -3.515,3.516c-1.476,0.868 -3.082,1.302 -4.818,1.302Zm7.422,34.505l-7.813,41.667l-12.5,0l5.209,-41.667l15.104,0Z" style="fill-rule:nonzero;"/><path d="M1435.89,2362.24c-6.12,1.041 -12.153,1.562 -18.099,1.562c-7.031,0 -12.717,-0.955 -17.057,-2.865c-4.341,-1.909 -7.531,-4.861 -9.571,-8.854c-2.04,-3.993 -3.06,-9.201 -3.06,-15.625l0,-31.51l-17.317,0l0,-11.458l17.317,0l0,-20.834l13.802,0l0,20.834l31.381,0l0,11.458l-31.381,0l0,30.859c0,5.512 1.346,9.495 4.037,11.947c2.691,2.452 7.074,3.678 13.151,3.678c1.996,0 4.134,-0.108 6.413,-0.325c2.278,-0.217 5.219,-0.543 8.821,-0.977l1.563,12.11Z" style="fill-rule:nonzero;"/><path d="M1529.64,2294.01l65.104,0l0,12.11l-65.104,0l0,-12.11Zm0,32.552l65.104,0l0,12.11l-65.104,0l0,-12.11Z" style="fill-rule:nonzero;"/><path d="M1752,2293.49l-25,34.375l25,34.635l-15.625,0l-16.862,-23.958l-16.211,23.958l-15.625,0l24.675,-34.115l-24.675,-34.895l15.625,0l16.537,24.153l16.536,-24.153l15.625,0Z" style="fill-rule:nonzero;"/><path d="M1909.33,2310.22l0,12.11l-26.302,0l0,27.799l-12.5,0l0,-27.799l-26.302,0l0,-12.11l26.302,0l0,-27.669l12.5,0l0,27.669l26.302,0Z" style="fill-rule:nonzero;"/><path d="M2042.58,2350.39l20.573,0l0,12.109l-57.422,0l0,-12.109l23.047,0l0,-67.579l-21.745,4.948l0,-12.5l21.745,-5.208l13.802,0l0,80.339Z" style="fill-rule:nonzero;"/><path d="M2111.85,2311.46c-1.736,0 -3.342,-0.434 -4.818,-1.302c-1.475,-0.868 -2.647,-2.04 -3.515,-3.515c-0.868,-1.476 -1.302,-3.082 -1.302,-4.818c0,-1.736 0.434,-3.342 1.302,-4.818c0.868,-1.475 2.04,-2.647 3.515,-3.515c1.476,-0.868 3.082,-1.302 4.818,-1.302c1.736,0 3.342,0.434 4.818,1.302c1.475,0.868 2.647,2.04 3.515,3.515c0.868,1.476 1.302,3.082 1.302,4.818c0,1.736 -0.434,3.342 -1.302,4.818c-0.868,1.475 -2.04,2.647 -3.515,3.515c-1.476,0.868 -3.082,1.302 -4.818,1.302Zm7.422,34.506l-7.813,41.666l-12.5,0l5.209,-41.666l15.104,0Z" style="fill-rule:nonzero;"/><path d="M1438.11,2455.99l-25,34.375l25,34.635l-15.625,0l-16.862,-23.958l-16.211,23.958l-15.625,0l24.675,-34.115l-24.675,-34.895l15.625,0l16.537,24.153l16.536,-24.153l15.625,0Z" style="fill-rule:nonzero;"/><path d="M1530.34,2456.51l65.105,0l0,12.11l-65.105,0l0,-12.11Zm0,32.552l65.105,0l0,12.11l-65.105,0l0,-12.11Z" style="fill-rule:nonzero;"/><path d="M1749.78,2524.74c-6.12,1.041 -12.153,1.562 -18.099,1.562c-7.032,0 -12.717,-0.955 -17.058,-2.865c-4.34,-1.909 -7.53,-4.861 -9.57,-8.854c-2.04,-3.993 -3.06,-9.201 -3.06,-15.625l0,-31.51l-17.318,0l0,-11.458l17.318,0l0,-20.834l13.802,0l0,20.834l31.38,0l0,11.458l-31.38,0l0,30.859c0,5.512 1.346,9.495 4.037,11.947c2.691,2.452 7.074,3.678 13.151,3.678c1.996,0 4.134,-0.108 6.412,-0.325c2.279,-0.217 5.22,-0.543 8.822,-0.977l1.563,12.11Z" style="fill-rule:nonzero;"/><path d="M1797.96,2473.96c-1.737,0 -3.342,-0.434 -4.818,-1.302c-1.476,-0.868 -2.648,-2.04 -3.516,-3.515c-0.868,-1.476 -1.302,-3.082 -1.302,-4.818c0,-1.736 0.434,-3.342 1.302,-4.818c0.868,-1.475 2.04,-2.647 3.516,-3.515c1.476,-0.868 3.081,-1.302 4.818,-1.302c1.736,0 3.342,0.434 4.817,1.302c1.476,0.868 2.648,2.04 3.516,3.515c0.868,1.476 1.302,3.082 1.302,4.818c0,1.736 -0.434,3.342 -1.302,4.818c-0.868,1.475 -2.04,2.647 -3.516,3.515c-1.475,0.868 -3.081,1.302 -4.817,1.302Zm7.421,34.506l-7.812,41.666l-12.5,0l5.208,-41.666l15.104,0Z" style="fill-rule:nonzero;"/><path d="M1442.27,2672.27l0,11.067l-22.135,0.651l-0.977,-13.932l-1.237,0c-1.042,4.688 -3.027,8.29 -5.957,10.807c-2.93,2.518 -6.543,3.776 -10.84,3.776c-7.682,0 -13.617,-2.148 -17.806,-6.445c-4.188,-4.297 -6.282,-10.395 -6.282,-18.294l0,-46.875l13.541,0l0,46.875c0,4.167 1.15,7.378 3.451,9.635c2.3,2.257 5.534,3.386 9.7,3.386c5.122,0 8.941,-1.682 11.459,-5.046c2.517,-3.364 3.776,-8.843 3.776,-16.439l0,-38.411l13.802,0l0,57.812l9.505,1.433Z" style="fill-rule:nonzero;"/><path d="M1489.28,2613.02c7.292,0 12.934,2.213 16.927,6.64c3.993,4.428 5.99,10.678 5.99,18.75l0,44.922l-13.802,0l0,-44.922c0,-4.34 -1.085,-7.704 -3.255,-10.091c-2.171,-2.387 -5.209,-3.58 -9.115,-3.58c-10.851,0 -16.276,6.597 -16.276,19.791l0,38.802l-13.802,0l0,-69.01l12.5,0l1.107,12.5l1.497,0c0.391,-4.644 2.083,-8.106 5.078,-10.384c2.995,-2.279 7.379,-3.418 13.151,-3.418Z" style="fill-rule:nonzero;"/><path d="M1592.4,2681.9c-3.472,0.955 -6.836,1.649 -10.091,2.083c-3.255,0.434 -6.749,0.651 -10.482,0.651c-5.382,0 -9.722,-0.954 -13.021,-2.864c-3.298,-1.91 -5.729,-4.861 -7.291,-8.854c-1.563,-3.993 -2.344,-9.202 -2.344,-15.625l0,-60.157l-20.313,0l0.001,-11.458l34.114,0l0,70.964c0,3.906 0.358,6.955 1.074,9.147c0.716,2.192 2.084,3.819 4.102,4.883c2.018,1.063 4.98,1.595 8.887,1.595c1.909,0 3.96,-0.196 6.152,-0.586c2.192,-0.391 4.742,-1.02 7.65,-1.888l1.562,12.109Z" style="fill-rule:nonzero;"/><path d="M1640.32,2684.64c-6.337,0 -11.773,-1.399 -16.309,-4.199c-4.535,-2.799 -7.986,-6.879 -10.351,-12.239c-2.366,-5.361 -3.548,-11.817 -3.548,-19.369c0,-7.552 1.182,-14.008 3.548,-19.368c2.365,-5.361 5.816,-9.44 10.351,-12.24c4.536,-2.799 9.972,-4.199 16.309,-4.199c6.337,0 11.773,1.4 16.308,4.199c4.536,2.8 7.987,6.879 10.352,12.24c2.365,5.36 3.548,11.816 3.548,19.368c0,7.552 -1.183,14.008 -3.548,19.369c-2.365,5.36 -5.816,9.44 -10.352,12.239c-4.535,2.8 -9.971,4.199 -16.308,4.199Zm0,-12.369c5.078,0 8.995,-2.029 11.751,-6.088c2.756,-4.058 4.134,-9.841 4.134,-17.35c0,-7.509 -1.378,-13.292 -4.134,-17.35c-2.756,-4.058 -6.673,-6.087 -11.751,-6.087c-5.078,0 -8.995,2.029 -11.751,6.087c-2.757,4.058 -4.135,9.841 -4.135,17.35c0,7.509 1.378,13.292 4.135,17.35c2.756,4.059 6.673,6.088 11.751,6.088Z" style="fill-rule:nonzero;"/><path d="M1723.78,2684.64c-7.552,0 -13.975,-1.388 -19.27,-4.166c-5.296,-2.778 -9.332,-6.847 -12.11,-12.207c-2.778,-5.361 -4.167,-11.882 -4.167,-19.564c0,-7.509 1.281,-13.932 3.842,-19.271c2.56,-5.338 6.315,-9.407 11.263,-12.207c4.948,-2.799 10.937,-4.199 17.968,-4.199c3.733,0 7.52,0.434 11.361,1.302c3.841,0.868 7.465,3.114 10.872,6.738c3.408,3.624 5.111,9.147 5.111,16.569l-14.193,0c0,-3.863 -1.15,-6.868 -3.45,-9.017c-2.3,-2.148 -5.491,-3.222 -9.57,-3.222c-5.99,0 -10.634,1.974 -13.933,5.924c-3.298,3.95 -4.948,9.527 -4.948,16.732c0,7.856 1.964,13.856 5.892,18.001c3.928,4.145 9.56,6.218 16.895,6.218c6.51,0 13.281,-0.565 20.312,-1.693l1.563,12.109c-6.294,1.302 -14.106,1.953 -23.438,1.953Z" style="fill-rule:nonzero;"/><path d="M1814.67,2683.33l-16.602,-28.385c-3.038,0.608 -6.141,0.911 -9.31,0.911l-7.031,0l0,27.474l-13.802,0l0,-97.656l13.802,0l0,57.813l3.776,0c5.816,0 10.547,-0.955 14.193,-2.865c3.646,-1.91 6.521,-4.97 8.626,-9.18c2.105,-4.21 3.657,-9.917 4.655,-17.122l14.323,0c-2.214,16.71 -7.661,28.342 -16.341,34.896l20.768,34.114l-17.057,0Z" style="fill-rule:nonzero;"/><path d="M1899.57,2697.66c-9.375,0 -17.394,-2.387 -24.056,-7.161c-6.663,-4.775 -11.741,-11.719 -15.235,-20.834c-3.494,-9.114 -5.241,-20.095 -5.241,-32.942c0,-12.674 1.747,-23.514 5.241,-32.52c3.494,-9.006 8.572,-15.863 15.235,-20.573c6.662,-4.709 14.681,-7.064 24.056,-7.064l3.125,0l-1.302,11.068l-0.521,0c-6.945,0 -12.869,1.921 -17.774,5.762c-4.904,3.841 -8.637,9.44 -11.198,16.797c-2.56,7.357 -3.841,16.2 -3.841,26.53c0,10.503 1.281,19.488 3.841,26.953c2.561,7.465 6.294,13.151 11.198,17.057c4.905,3.906 10.829,5.86 17.774,5.86l0.521,0l1.302,11.067l-3.125,0Z" style="fill-rule:nonzero;"/><path d="M1973,2613.02c4.774,0 8.247,1.28 10.417,3.841c2.17,2.561 3.255,6.706 3.255,12.435l0,54.036l-13.802,0l0,-52.734c0,-2.431 -0.434,-4.232 -1.302,-5.404c-0.868,-1.172 -2.214,-1.758 -4.037,-1.758c-4.514,0 -6.77,3.125 -6.77,9.375l0,50.521l-11.719,0l0,-54.036c0,-3.906 -1.823,-5.86 -5.469,-5.86c-4.427,0 -6.641,3.125 -6.641,9.375l0,50.521l-13.802,0l0,-69.01l12.24,0l0.911,8.594l1.042,0c0.26,-3.342 1.356,-5.827 3.288,-7.455c1.931,-1.627 4.785,-2.441 8.561,-2.441c2.951,0 5.382,0.835 7.292,2.506c1.909,1.671 3.19,4.134 3.841,7.39l1.107,0c0.217,-2.822 1.334,-5.176 3.352,-7.064c2.019,-1.888 4.764,-2.832 8.236,-2.832Z" style="fill-rule:nonzero;"/><path d="M2008.94,2686.59c6.944,0 12.869,-1.954 17.773,-5.86c4.905,-3.906 8.637,-9.592 11.198,-17.057c2.561,-7.465 3.841,-16.45 3.841,-26.953c0,-10.33 -1.28,-19.173 -3.841,-26.53c-2.561,-7.357 -6.293,-12.956 -11.198,-16.797c-4.904,-3.841 -10.829,-5.762 -17.773,-5.762l-0.521,0l-1.302,-11.067l3.125,0c9.375,0 17.393,2.354 24.056,7.063c6.662,4.71 11.74,11.567 15.234,20.573c3.494,9.006 5.241,19.846 5.241,32.52c0,12.847 -1.747,23.828 -5.241,32.942c-3.494,9.115 -8.572,16.059 -15.234,20.834c-6.663,4.774 -14.681,7.161 -24.056,7.161l-3.125,0l1.302,-11.067l0.521,0Z" style="fill-rule:nonzero;"/><path d="M2111.15,2632.29c-1.736,0 -3.342,-0.434 -4.818,-1.302c-1.475,-0.868 -2.647,-2.04 -3.515,-3.516c-0.868,-1.476 -1.302,-3.082 -1.302,-4.818c0,-1.736 0.434,-3.342 1.302,-4.817c0.868,-1.476 2.04,-2.648 3.515,-3.516c1.476,-0.868 3.082,-1.302 4.818,-1.302c1.736,0 3.342,0.434 4.818,1.302c1.476,0.868 2.647,2.04 3.515,3.516c0.869,1.475 1.303,3.081 1.303,4.817c0,1.736 -0.434,3.342 -1.302,4.818c-0.869,1.476 -2.04,2.648 -3.516,3.516c-1.476,0.868 -3.082,1.302 -4.818,1.302Zm7.422,34.505l-7.812,41.667l-12.5,0l5.208,-41.667l15.104,0Z" style="fill-rule:nonzero;"/></g><path d="M329.167,833.333l0,156.217l-33.334,0l0,-156.217l33.334,0Zm33.333,139.55l-50,100l-50,-100l100,0Z" style="fill:#c00000;fill-rule:nonzero;"/><path d="M468.567,1276.14l1055.69,412.537l-12.129,31.046l-1055.7,-412.533l12.134,-31.05Zm1052.3,375.42l74.941,82.967l-111.337,10.175l36.396,-93.142Z" style="fill:#c00000;fill-rule:nonzero;"/><g><path d="M488.733,70.433l-22.8,0l0,62.9l-10.6,0l0,-62.9l-22.9,0l0,-8.9l56.3,0l0,8.9Z" style="fill:#7f7f7f;fill-rule:nonzero;"/><path d="M505.983,88.983c2.134,-2.166 4.492,-3.916 7.075,-5.25c2.584,-1.333 5.559,-2 8.925,-2c2.8,0 5.259,0.467 7.375,1.4c2.117,0.934 3.892,2.242 5.325,3.925c1.434,1.684 2.517,3.709 3.25,6.075c0.734,2.367 1.1,4.984 1.1,7.85l0,32.35l-9.8,0l0,-32.35c0,-3.633 -0.833,-6.458 -2.5,-8.475c-1.666,-2.016 -4.216,-3.025 -7.65,-3.025c-2.5,0 -4.841,0.592 -7.025,1.775c-2.183,1.184 -4.208,2.792 -6.075,4.825l0,37.25l-9.75,0l0,-73.8l9.75,0l0,29.45Z" style="fill:#7f7f7f;fill-rule:nonzero;"/><path d="M561.383,92.283c1.634,-3.333 3.6,-5.95 5.9,-7.85c2.3,-1.9 5.067,-2.85 8.3,-2.85c1.1,0 2.142,0.125 3.125,0.375c0.984,0.25 1.842,0.625 2.575,1.125l-0.65,7.35c-0.233,0.9 -0.783,1.35 -1.65,1.35c-0.466,0 -1.166,-0.091 -2.1,-0.275c-0.933,-0.183 -1.933,-0.275 -3,-0.275c-1.566,0 -2.95,0.225 -4.15,0.675c-1.2,0.45 -2.275,1.117 -3.225,2c-0.95,0.884 -1.791,1.967 -2.525,3.25c-0.733,1.284 -1.416,2.742 -2.05,4.375l0,31.8l-9.75,0l0,-50.8l5.6,0c1.067,0 1.792,0.192 2.175,0.575c0.384,0.384 0.659,1.059 0.825,2.025l0.6,7.15Z" style="fill:#7f7f7f;fill-rule:nonzero;"/><path d="M620.583,102.283c0,-1.933 -0.275,-3.716 -0.825,-5.35c-0.55,-1.633 -1.358,-3.05 -2.425,-4.25c-1.066,-1.2 -2.366,-2.133 -3.9,-2.8c-1.533,-0.666 -3.3,-1 -5.3,-1c-4.1,0 -7.325,1.184 -9.675,3.55c-2.35,2.367 -3.841,5.65 -4.475,9.85l26.6,0Zm8.05,23.8c-1.2,1.4 -2.583,2.609 -4.15,3.625c-1.566,1.017 -3.233,1.842 -5,2.475c-1.766,0.634 -3.591,1.1 -5.475,1.4c-1.883,0.3 -3.741,0.45 -5.575,0.45c-3.5,0 -6.741,-0.591 -9.725,-1.775c-2.983,-1.183 -5.566,-2.916 -7.75,-5.2c-2.183,-2.283 -3.883,-5.116 -5.1,-8.5c-1.216,-3.383 -1.825,-7.275 -1.825,-11.675c0,-3.533 0.55,-6.825 1.65,-9.875c1.1,-3.05 2.675,-5.708 4.725,-7.975c2.05,-2.266 4.559,-4.05 7.525,-5.35c2.967,-1.3 6.3,-1.95 10,-1.95c3.1,0 5.959,0.509 8.575,1.525c2.617,1.017 4.875,2.492 6.775,4.425c1.9,1.934 3.392,4.317 4.475,7.15c1.084,2.834 1.625,6.067 1.625,9.7c0,1.5 -0.166,2.509 -0.5,3.025c-0.333,0.517 -0.95,0.775 -1.85,0.775l-33.3,0c0.1,3.034 0.534,5.675 1.3,7.925c0.767,2.25 1.825,4.125 3.175,5.625c1.35,1.5 2.959,2.617 4.825,3.35c1.867,0.734 3.95,1.1 6.25,1.1c2.167,0 4.042,-0.25 5.625,-0.75c1.584,-0.5 2.95,-1.041 4.1,-1.625c1.15,-0.583 2.117,-1.125 2.9,-1.625c0.784,-0.5 1.475,-0.75 2.075,-0.75c0.8,0 1.417,0.3 1.85,0.9l2.8,3.6Z" style="fill:#7f7f7f;fill-rule:nonzero;"/><path d="M667.183,110.783c-3.966,0.134 -7.333,0.442 -10.1,0.925c-2.766,0.484 -5.016,1.125 -6.75,1.925c-1.733,0.8 -2.983,1.742 -3.75,2.825c-0.766,1.084 -1.15,2.292 -1.15,3.625c0,1.267 0.209,2.359 0.625,3.275c0.417,0.917 0.984,1.667 1.7,2.25c0.717,0.584 1.559,1.009 2.525,1.275c0.967,0.267 2.017,0.4 3.15,0.4c1.5,0 2.875,-0.15 4.125,-0.45c1.25,-0.3 2.425,-0.725 3.525,-1.275c1.1,-0.55 2.15,-1.225 3.15,-2.025c1,-0.8 1.984,-1.716 2.95,-2.75l0,-10Zm-28.6,-21.15c2.834,-2.7 5.909,-4.716 9.225,-6.05c3.317,-1.333 6.959,-2 10.925,-2c2.9,0 5.467,0.475 7.7,1.425c2.234,0.95 4.117,2.275 5.65,3.975c1.534,1.7 2.692,3.734 3.475,6.1c0.784,2.367 1.175,4.984 1.175,7.85l0,32.4l-4.35,0c-0.966,0 -1.7,-0.158 -2.2,-0.475c-0.5,-0.316 -0.9,-0.908 -1.2,-1.775l-1.05,-4.45c-1.3,1.2 -2.583,2.259 -3.85,3.175c-1.266,0.917 -2.591,1.7 -3.975,2.35c-1.383,0.65 -2.858,1.142 -4.425,1.475c-1.566,0.334 -3.3,0.5 -5.2,0.5c-2,0 -3.875,-0.275 -5.625,-0.825c-1.75,-0.55 -3.275,-1.391 -4.575,-2.525c-1.3,-1.133 -2.325,-2.55 -3.075,-4.25c-0.75,-1.7 -1.125,-3.683 -1.125,-5.95c0,-2 0.542,-3.925 1.625,-5.775c1.084,-1.85 2.85,-3.508 5.3,-4.975c2.45,-1.466 5.65,-2.666 9.6,-3.6c3.95,-0.933 8.809,-1.466 14.575,-1.6l0,-3.7c0,-3.833 -0.816,-6.7 -2.45,-8.6c-1.633,-1.9 -4.033,-2.85 -7.2,-2.85c-2.133,0 -3.925,0.267 -5.375,0.8c-1.45,0.534 -2.7,1.125 -3.75,1.775c-1.05,0.65 -1.966,1.242 -2.75,1.775c-0.783,0.534 -1.591,0.8 -2.425,0.8c-0.666,0 -1.241,-0.183 -1.725,-0.55c-0.483,-0.366 -0.875,-0.8 -1.175,-1.3l-1.75,-3.15Z" style="fill:#7f7f7f;fill-rule:nonzero;"/><path d="M722.583,94.833c-1.6,-2.1 -3.325,-3.566 -5.175,-4.4c-1.85,-0.833 -3.925,-1.25 -6.225,-1.25c-4.466,0 -7.925,1.609 -10.375,4.825c-2.45,3.217 -3.675,7.909 -3.675,14.075c0,3.234 0.275,5.992 0.825,8.275c0.55,2.284 1.35,4.15 2.4,5.6c1.05,1.45 2.342,2.517 3.875,3.2c1.534,0.684 3.267,1.025 5.2,1.025c2.834,0 5.284,-0.633 7.35,-1.9c2.067,-1.266 4,-3.05 5.8,-5.35l0,-24.1Zm9.8,-35.3l0,73.8l-5.9,0c-1.366,0 -2.216,-0.65 -2.55,-1.95l-0.85,-5.85c-2.166,2.567 -4.625,4.625 -7.375,6.175c-2.75,1.55 -5.925,2.325 -9.525,2.325c-2.9,0 -5.525,-0.566 -7.875,-1.7c-2.35,-1.133 -4.358,-2.791 -6.025,-4.975c-1.666,-2.183 -2.95,-4.891 -3.85,-8.125c-0.9,-3.233 -1.35,-6.95 -1.35,-11.15c0,-3.766 0.5,-7.266 1.5,-10.5c1,-3.233 2.45,-6.033 4.35,-8.4c1.9,-2.366 4.2,-4.225 6.9,-5.575c2.7,-1.35 5.75,-2.025 9.15,-2.025c3.067,0 5.675,0.5 7.825,1.5c2.15,1 4.075,2.417 5.775,4.25l0,-27.8l9.8,0Z" style="fill:#7f7f7f;fill-rule:nonzero;"/><path d="M818.145,125.883l0,7.45l-38.8,0l0,-7.45l15.2,0l0,-47.05c0,-1.5 0.05,-3.05 0.15,-4.65l-12.2,10.35c-0.467,0.367 -0.934,0.6 -1.4,0.7c-0.467,0.1 -0.909,0.117 -1.325,0.05c-0.417,-0.066 -0.784,-0.208 -1.1,-0.425c-0.317,-0.216 -0.575,-0.441 -0.775,-0.675l-3.05,-4.25l21.5,-18.55l7.95,0l0,64.5l13.85,0Z" style="fill:#7f7f7f;fill-rule:nonzero;"/><path d="M1738.22,1562.1l-22.8,0l0,62.9l-10.6,0l0,-62.9l-22.9,0l0,-8.9l56.3,0l0,8.9Z" style="fill:#7f7f7f;fill-rule:nonzero;"/><path d="M1755.47,1580.65c2.133,-2.167 4.491,-3.917 7.075,-5.25c2.583,-1.333 5.558,-2 8.925,-2c2.8,0 5.258,0.467 7.375,1.4c2.116,0.933 3.891,2.242 5.325,3.925c1.433,1.683 2.516,3.708 3.25,6.075c0.733,2.367 1.1,4.983 1.1,7.85l0,32.35l-9.8,0l0,-32.35c0,-3.633 -0.834,-6.458 -2.5,-8.475c-1.667,-2.017 -4.217,-3.025 -7.65,-3.025c-2.5,0 -4.842,0.592 -7.025,1.775c-2.184,1.183 -4.209,2.792 -6.075,4.825l0,37.25l-9.75,0l0,-73.8l9.75,0l0,29.45Z" style="fill:#7f7f7f;fill-rule:nonzero;"/><path d="M1810.87,1583.95c1.633,-3.333 3.6,-5.95 5.9,-7.85c2.3,-1.9 5.066,-2.85 8.3,-2.85c1.1,0 2.141,0.125 3.125,0.375c0.983,0.25 1.841,0.625 2.575,1.125l-0.65,7.35c-0.234,0.9 -0.784,1.35 -1.65,1.35c-0.467,0 -1.167,-0.092 -2.1,-0.275c-0.934,-0.183 -1.934,-0.275 -3,-0.275c-1.567,0 -2.95,0.225 -4.15,0.675c-1.2,0.45 -2.275,1.117 -3.225,2c-0.95,0.883 -1.792,1.967 -2.525,3.25c-0.734,1.283 -1.417,2.742 -2.05,4.375l0,31.8l-9.75,0l0,-50.8l5.6,0c1.066,0 1.791,0.192 2.175,0.575c0.383,0.383 0.658,1.058 0.825,2.025l0.6,7.15Z" style="fill:#7f7f7f;fill-rule:nonzero;"/><path d="M1870.07,1593.95c0,-1.933 -0.275,-3.717 -0.825,-5.35c-0.55,-1.633 -1.359,-3.05 -2.425,-4.25c-1.067,-1.2 -2.367,-2.133 -3.9,-2.8c-1.534,-0.667 -3.3,-1 -5.3,-1c-4.1,0 -7.325,1.183 -9.675,3.55c-2.35,2.367 -3.842,5.65 -4.475,9.85l26.6,0Zm8.05,23.8c-1.2,1.4 -2.584,2.608 -4.15,3.625c-1.567,1.017 -3.234,1.842 -5,2.475c-1.767,0.633 -3.592,1.1 -5.475,1.4c-1.884,0.3 -3.742,0.45 -5.575,0.45c-3.5,0 -6.742,-0.592 -9.725,-1.775c-2.984,-1.183 -5.567,-2.917 -7.75,-5.2c-2.184,-2.283 -3.884,-5.117 -5.1,-8.5c-1.217,-3.383 -1.825,-7.275 -1.825,-11.675c0,-3.533 0.55,-6.825 1.65,-9.875c1.1,-3.05 2.675,-5.708 4.725,-7.975c2.05,-2.267 4.558,-4.05 7.525,-5.35c2.966,-1.3 6.3,-1.95 10,-1.95c3.1,0 5.958,0.508 8.575,1.525c2.616,1.017 4.875,2.492 6.775,4.425c1.9,1.933 3.391,4.317 4.475,7.15c1.083,2.833 1.625,6.067 1.625,9.7c0,1.5 -0.167,2.508 -0.5,3.025c-0.334,0.517 -0.95,0.775 -1.85,0.775l-33.3,0c0.1,3.033 0.533,5.675 1.3,7.925c0.766,2.25 1.825,4.125 3.175,5.625c1.35,1.5 2.958,2.617 4.825,3.35c1.866,0.733 3.95,1.1 6.25,1.1c2.166,0 4.041,-0.25 5.625,-0.75c1.583,-0.5 2.95,-1.042 4.1,-1.625c1.15,-0.583 2.116,-1.125 2.9,-1.625c0.783,-0.5 1.475,-0.75 2.075,-0.75c0.8,0 1.416,0.3 1.85,0.9l2.8,3.6Z" style="fill:#7f7f7f;fill-rule:nonzero;"/><path d="M1916.67,1602.45c-3.967,0.133 -7.334,0.442 -10.1,0.925c-2.767,0.483 -5.017,1.125 -6.75,1.925c-1.734,0.8 -2.984,1.742 -3.75,2.825c-0.767,1.083 -1.15,2.292 -1.15,3.625c0,1.267 0.208,2.358 0.625,3.275c0.416,0.917 0.983,1.667 1.7,2.25c0.716,0.583 1.558,1.008 2.525,1.275c0.966,0.267 2.016,0.4 3.15,0.4c1.5,0 2.875,-0.15 4.125,-0.45c1.25,-0.3 2.425,-0.725 3.525,-1.275c1.1,-0.55 2.15,-1.225 3.15,-2.025c1,-0.8 1.983,-1.717 2.95,-2.75l0,-10Zm-28.6,-21.15c2.833,-2.7 5.908,-4.717 9.225,-6.05c3.316,-1.333 6.958,-2 10.925,-2c2.9,0 5.466,0.475 7.7,1.425c2.233,0.95 4.116,2.275 5.65,3.975c1.533,1.7 2.691,3.733 3.475,6.1c0.783,2.367 1.175,4.983 1.175,7.85l0,32.4l-4.35,0c-0.967,0 -1.7,-0.158 -2.2,-0.475c-0.5,-0.317 -0.9,-0.908 -1.2,-1.775l-1.05,-4.45c-1.3,1.2 -2.584,2.258 -3.85,3.175c-1.267,0.917 -2.592,1.7 -3.975,2.35c-1.384,0.65 -2.859,1.142 -4.425,1.475c-1.567,0.333 -3.3,0.5 -5.2,0.5c-2,0 -3.875,-0.275 -5.625,-0.825c-1.75,-0.55 -3.275,-1.392 -4.575,-2.525c-1.3,-1.133 -2.325,-2.55 -3.075,-4.25c-0.75,-1.7 -1.125,-3.683 -1.125,-5.95c0,-2 0.541,-3.925 1.625,-5.775c1.083,-1.85 2.85,-3.508 5.3,-4.975c2.45,-1.467 5.65,-2.667 9.6,-3.6c3.95,-0.933 8.808,-1.467 14.575,-1.6l0,-3.7c0,-3.833 -0.817,-6.7 -2.45,-8.6c-1.634,-1.9 -4.034,-2.85 -7.2,-2.85c-2.134,0 -3.925,0.267 -5.375,0.8c-1.45,0.533 -2.7,1.125 -3.75,1.775c-1.05,0.65 -1.967,1.242 -2.75,1.775c-0.784,0.533 -1.592,0.8 -2.425,0.8c-0.667,0 -1.242,-0.183 -1.725,-0.55c-0.484,-0.367 -0.875,-0.8 -1.175,-1.3l-1.75,-3.15Z" style="fill:#7f7f7f;fill-rule:nonzero;"/><path d="M1972.07,1586.5c-1.6,-2.1 -3.325,-3.567 -5.175,-4.4c-1.85,-0.833 -3.925,-1.25 -6.225,-1.25c-4.467,0 -7.925,1.608 -10.375,4.825c-2.45,3.217 -3.675,7.908 -3.675,14.075c0,3.233 0.275,5.992 0.825,8.275c0.55,2.283 1.35,4.15 2.4,5.6c1.05,1.45 2.341,2.517 3.875,3.2c1.533,0.683 3.266,1.025 5.2,1.025c2.833,0 5.283,-0.633 7.35,-1.9c2.066,-1.267 4,-3.05 5.8,-5.35l0,-24.1Zm9.8,-35.3l0,73.8l-5.9,0c-1.367,0 -2.217,-0.65 -2.55,-1.95l-0.85,-5.85c-2.167,2.567 -4.625,4.625 -7.375,6.175c-2.75,1.55 -5.925,2.325 -9.525,2.325c-2.9,0 -5.525,-0.567 -7.875,-1.7c-2.35,-1.133 -4.359,-2.792 -6.025,-4.975c-1.667,-2.183 -2.95,-4.892 -3.85,-8.125c-0.9,-3.233 -1.35,-6.95 -1.35,-11.15c0,-3.767 0.5,-7.267 1.5,-10.5c1,-3.233 2.45,-6.033 4.35,-8.4c1.9,-2.367 4.2,-4.225 6.9,-5.575c2.7,-1.35 5.75,-2.025 9.15,-2.025c3.066,0 5.675,0.5 7.825,1.5c2.15,1 4.075,2.417 5.775,4.25l0,-27.8l9.8,0Z" style="fill:#7f7f7f;fill-rule:nonzero;"/><path d="M2065.83,1615.75c1.067,0 1.9,0.308 2.5,0.925c0.6,0.617 0.9,1.425 0.9,2.425l0,5.9l-48.2,0l0,-3.35c0,-0.667 0.134,-1.375 0.4,-2.125c0.267,-0.75 0.717,-1.425 1.35,-2.025l22.7,-22.75c1.9,-1.9 3.617,-3.733 5.15,-5.5c1.534,-1.767 2.834,-3.525 3.9,-5.275c1.067,-1.75 1.892,-3.542 2.475,-5.375c0.584,-1.833 0.875,-3.767 0.875,-5.8c0,-2 -0.316,-3.758 -0.95,-5.275c-0.633,-1.517 -1.5,-2.775 -2.6,-3.775c-1.1,-1 -2.4,-1.75 -3.9,-2.25c-1.5,-0.5 -3.116,-0.75 -4.85,-0.75c-1.733,0 -3.325,0.25 -4.775,0.75c-1.45,0.5 -2.741,1.2 -3.875,2.1c-1.133,0.9 -2.083,1.967 -2.85,3.2c-0.766,1.233 -1.316,2.567 -1.65,4c-0.466,1.267 -1.058,2.117 -1.775,2.55c-0.716,0.433 -1.758,0.533 -3.125,0.3l-5.1,-0.9c0.467,-3.333 1.384,-6.267 2.75,-8.8c1.367,-2.533 3.084,-4.658 5.15,-6.375c2.067,-1.717 4.442,-3.008 7.125,-3.875c2.684,-0.867 5.575,-1.3 8.675,-1.3c3.134,0 6.025,0.458 8.675,1.375c2.65,0.917 4.942,2.242 6.875,3.975c1.934,1.733 3.45,3.842 4.55,6.325c1.1,2.483 1.65,5.292 1.65,8.425c0,2.667 -0.391,5.142 -1.175,7.425c-0.783,2.283 -1.85,4.458 -3.2,6.525c-1.35,2.067 -2.916,4.075 -4.7,6.025c-1.783,1.95 -3.675,3.925 -5.675,5.925l-18.2,18.6c1.4,-0.367 2.809,-0.667 4.225,-0.9c1.417,-0.233 2.759,-0.35 4.025,-0.35l22.65,0Z" style="fill:#7f7f7f;fill-rule:nonzero;"/></g><path d="M1545.83,1958.33l0,156.217l-33.333,0l0,-156.217l33.333,0Zm33.334,139.55l-50,100l-50,-100l100,0Z" style="fill:#c00000;fill-rule:nonzero;"/></g></g></svg>