<?xml version="1.0" encoding="UTF-8" standalone="no"?>
<!DOCTYPE svg PUBLIC "-//W3C//DTD SVG 1.1//EN" "http://www.w3.org/Graphics/SVG/1.1/DTD/svg11.dtd">
<svg width="100%" height="100%" viewBox="0 0 5700 606" version="1.1" xmlns="http://www.w3.org/2000/svg" xmlns:xlink="http://www.w3.org/1999/xlink" xml:space="preserve" xmlns:serif="http://www.serif.com/" style="fill-rule:evenodd;clip-rule:evenodd;stroke-linejoin:round;stroke-miterlimit:2;">
    <g transform="matrix(1,0,0,1,-103.24034,-435.305845)">
        <g transform="matrix(4.620943,0,0,4.620943,-1431.234652,-1226.231332)">
            <g transform="matrix(144,0,0,144,545.552874,461.604585)">
            </g>
            <text x="308.037px" y="461.605px" style="font-family:'Consolas', monospace;font-size:144px;fill:rgb(122,122,122);stroke:white;stroke-width:0.45px;">[=]</text>
        </g>
        <g transform="matrix(4.502277,0,0,4.502277,245.901259,-2242.726307)">
            <rect x="217.119" y="609.855" width="21.744" height="104.472" style="fill:rgb(24,57,120);fill-rule:nonzero;stroke:white;stroke-width:0.46px;"/>
        </g>
        <g transform="matrix(4.502277,0,0,4.502277,245.901259,-2242.726307)">
            <path d="M350.247,609.855L350.247,714.327L339.087,714.327C337.407,714.327 335.991,714.051 334.839,713.499C333.687,712.947 332.559,711.999 331.455,710.655L279.399,644.415C279.543,646.095 279.651,647.751 279.723,649.383C279.795,651.015 279.831,652.527 279.831,653.919L279.831,714.327L260.751,714.327L260.751,609.855L272.127,609.855C273.039,609.855 273.819,609.891 274.467,609.963C275.115,610.035 275.703,610.203 276.231,610.467C276.759,610.731 277.263,611.079 277.743,611.511C278.223,611.943 278.751,612.519 279.327,613.239L331.743,679.767C331.551,677.943 331.407,676.179 331.311,674.475C331.215,672.771 331.167,671.151 331.167,669.615L331.167,609.855L350.247,609.855Z" style="fill:rgb(24,57,120);fill-rule:nonzero;stroke:white;stroke-width:0.46px;"/>
        </g>
        <g transform="matrix(4.502277,0,0,4.502277,245.901259,-2242.726307)">
            <path d="M393.879,626.775L393.879,655.647L431.463,655.647L431.463,672.639L393.879,672.639L393.879,714.327L372.135,714.327L372.135,609.855L438.663,609.855L438.663,626.775L393.879,626.775Z" style="fill:rgb(24,57,120);fill-rule:nonzero;stroke:white;stroke-width:0.46px;"/>
        </g>
        <g transform="matrix(4.502277,0,0,4.502277,213.76584,-2242.726307)">
            <path d="M553.647,662.055C553.647,669.687 552.363,676.767 549.795,683.295C547.227,689.823 543.603,695.463 538.923,700.215C534.243,704.967 528.615,708.699 522.039,711.411C515.463,714.123 508.167,715.479 500.151,715.479C492.135,715.479 484.839,714.123 478.263,711.411C471.687,708.699 466.047,704.967 461.343,700.215C456.639,695.463 453.003,689.823 450.435,683.295C447.867,676.767 446.583,669.687 446.583,662.055C446.583,654.423 447.867,647.355 450.435,640.851C453.003,634.347 456.639,628.719 461.343,623.967C466.047,619.215 471.687,615.483 478.263,612.771C484.839,610.059 492.135,608.703 500.151,608.703C508.167,608.703 515.463,610.059 522.039,612.771C528.615,615.483 534.243,619.227 538.923,624.003C543.603,628.779 547.227,634.419 549.795,640.923C552.363,647.427 553.647,654.471 553.647,662.055ZM531.543,662.055C531.543,656.583 530.823,651.675 529.383,647.331C527.943,642.987 525.867,639.291 523.155,636.243C520.443,633.195 517.155,630.867 513.291,629.259C509.427,627.651 505.047,626.847 500.151,626.847C495.255,626.847 490.863,627.651 486.975,629.259C483.087,630.867 479.787,633.195 477.075,636.243C474.363,639.291 472.287,642.987 470.847,647.331C469.407,651.675 468.687,656.583 468.687,662.055C468.687,667.575 469.407,672.507 470.847,676.851C472.287,681.195 474.363,684.879 477.075,687.903C479.787,690.927 483.087,693.243 486.975,694.851C490.863,696.459 495.255,697.263 500.151,697.263C505.047,697.263 509.427,696.459 513.291,694.851C517.155,693.243 520.443,690.927 523.155,687.903C525.867,684.879 527.943,681.195 529.383,676.851C530.823,672.507 531.543,667.575 531.543,662.055Z" style="fill:rgb(24,57,120);fill-rule:nonzero;stroke:white;stroke-width:0.46px;"/>
        </g>
        <g transform="matrix(4.502277,0,0,4.502277,195.936824,-2242.726307)">
            <path d="M640.335,627.279L609.807,627.279L609.807,714.327L588.135,714.327L588.135,627.279L557.607,627.279L557.607,609.855L640.335,609.855L640.335,627.279Z" style="fill:rgb(24,57,120);fill-rule:nonzero;stroke:white;stroke-width:0.46px;"/>
        </g>
        <g transform="matrix(4.502277,0,0,4.502277,195.936824,-2242.726307)">
            <path d="M686.055,659.319C689.559,659.319 692.583,658.875 695.127,657.987C697.671,657.099 699.759,655.875 701.391,654.315C703.023,652.755 704.223,650.919 704.991,648.807C705.759,646.695 706.143,644.391 706.143,641.895C706.143,636.951 704.499,633.111 701.211,630.375C697.923,627.639 692.919,626.271 686.199,626.271L674.967,626.271L674.967,659.319L686.055,659.319ZM736.671,714.327L717.159,714.327C713.511,714.327 710.871,712.935 709.239,710.151L689.367,678.111C688.551,676.863 687.651,675.951 686.667,675.375C685.683,674.799 684.231,674.511 682.311,674.511L674.967,674.511L674.967,714.327L653.367,714.327L653.367,609.855L686.199,609.855C693.495,609.855 699.735,610.611 704.919,612.123C710.103,613.635 714.351,615.735 717.663,618.423C720.975,621.111 723.399,624.315 724.935,628.035C726.471,631.755 727.239,635.847 727.239,640.311C727.239,643.767 726.747,647.043 725.763,650.139C724.779,653.235 723.351,656.055 721.479,658.599C719.607,661.143 717.303,663.399 714.567,665.367C711.831,667.335 708.711,668.919 705.207,670.119C706.599,670.887 707.895,671.811 709.095,672.891C710.295,673.971 711.375,675.255 712.335,676.743L736.671,714.327Z" style="fill:rgb(24,57,120);fill-rule:nonzero;stroke:white;stroke-width:0.46px;"/>
        </g>
        <g transform="matrix(4.502277,0,0,4.502277,195.936824,-2242.726307)">
            <path d="M802.047,674.655L790.743,642.687C790.071,641.007 789.363,639.039 788.619,636.783C787.875,634.527 787.167,632.079 786.495,629.439C785.823,632.127 785.115,634.611 784.371,636.891C783.627,639.171 782.919,641.151 782.247,642.831L771.015,674.655L802.047,674.655ZM838.335,714.327L821.559,714.327C819.687,714.327 818.163,713.883 816.987,712.995C815.811,712.107 814.935,710.967 814.359,709.575L807.303,689.631L765.687,689.631L758.631,709.575C758.151,710.775 757.311,711.867 756.111,712.851C754.911,713.835 753.399,714.327 751.575,714.327L734.655,714.327L775.479,609.855L797.583,609.855L838.335,714.327Z" style="fill:rgb(24,57,120);fill-rule:nonzero;stroke:white;stroke-width:0.46px;"/>
        </g>
        <g transform="matrix(4.502277,0,0,4.502277,195.936824,-2242.726307)">
            <rect x="847.983" y="609.855" width="21.744" height="104.472" style="fill:rgb(24,57,120);fill-rule:nonzero;stroke:white;stroke-width:0.46px;"/>
        </g>
        <g transform="matrix(4.502277,0,0,4.502277,195.936824,-2242.726307)">
            <path d="M981.111,609.855L981.111,714.327L969.951,714.327C968.271,714.327 966.855,714.051 965.703,713.499C964.551,712.947 963.423,711.999 962.319,710.655L910.263,644.415C910.407,646.095 910.515,647.751 910.587,649.383C910.659,651.015 910.695,652.527 910.695,653.919L910.695,714.327L891.615,714.327L891.615,609.855L902.991,609.855C903.903,609.855 904.683,609.891 905.331,609.963C905.979,610.035 906.567,610.203 907.095,610.467C907.623,610.731 908.127,611.079 908.607,611.511C909.087,611.943 909.615,612.519 910.191,613.239L962.607,679.767C962.415,677.943 962.271,676.179 962.175,674.475C962.079,672.771 962.031,671.151 962.031,669.615L962.031,609.855L981.111,609.855Z" style="fill:rgb(24,57,120);fill-rule:nonzero;stroke:white;stroke-width:0.46px;"/>
        </g>
        <g transform="matrix(4.502277,0,0,4.502277,195.936824,-2242.726307)">
            <rect x="1002.999" y="609.855" width="21.744" height="104.472" style="fill:rgb(24,57,120);fill-rule:nonzero;stroke:white;stroke-width:0.46px;"/>
        </g>
        <g transform="matrix(4.502277,0,0,4.502277,195.936824,-2242.726307)">
            <path d="M1136.127,609.855L1136.127,714.327L1124.967,714.327C1123.287,714.327 1121.871,714.051 1120.719,713.499C1119.567,712.947 1118.439,711.999 1117.335,710.655L1065.279,644.415C1065.423,646.095 1065.531,647.751 1065.603,649.383C1065.675,651.015 1065.711,652.527 1065.711,653.919L1065.711,714.327L1046.631,714.327L1046.631,609.855L1058.007,609.855C1058.919,609.855 1059.699,609.891 1060.347,609.963C1060.995,610.035 1061.583,610.203 1062.111,610.467C1062.639,610.731 1063.143,611.079 1063.623,611.511C1064.103,611.943 1064.631,612.519 1065.207,613.239L1117.623,679.767C1117.431,677.943 1117.287,676.179 1117.191,674.475C1117.095,672.771 1117.047,671.151 1117.047,669.615L1117.047,609.855L1136.127,609.855Z" style="fill:rgb(24,57,120);fill-rule:nonzero;stroke:white;stroke-width:0.46px;"/>
        </g>
        <g transform="matrix(4.502277,0,0,4.502277,195.936824,-2242.726307)">
            <path d="M1208.847,661.119L1244.703,661.119L1244.703,704.247C1239.375,708.135 1233.699,710.979 1227.675,712.779C1221.651,714.579 1215.279,715.479 1208.559,715.479C1199.967,715.479 1192.191,714.147 1185.231,711.483C1178.271,708.819 1172.319,705.111 1167.375,700.359C1162.431,695.607 1158.615,689.967 1155.927,683.439C1153.239,676.911 1151.895,669.783 1151.895,662.055C1151.895,654.231 1153.179,647.055 1155.747,640.527C1158.315,633.999 1161.975,628.383 1166.727,623.679C1171.479,618.975 1177.227,615.303 1183.971,612.663C1190.715,610.023 1198.263,608.703 1206.615,608.703C1210.935,608.703 1214.967,609.051 1218.711,609.747C1222.455,610.443 1225.911,611.403 1229.079,612.627C1232.247,613.851 1235.151,615.303 1237.791,616.983C1240.431,618.663 1242.831,620.511 1244.991,622.527L1238.727,632.175C1237.767,633.711 1236.519,634.647 1234.983,634.983C1233.447,635.319 1231.767,634.935 1229.943,633.831C1228.215,632.775 1226.523,631.827 1224.867,630.987C1223.211,630.147 1221.447,629.415 1219.575,628.791C1217.703,628.167 1215.663,627.687 1213.455,627.351C1211.247,627.015 1208.703,626.847 1205.823,626.847C1200.975,626.847 1196.583,627.687 1192.647,629.367C1188.711,631.047 1185.363,633.423 1182.603,636.495C1179.843,639.567 1177.719,643.263 1176.231,647.583C1174.743,651.903 1173.999,656.727 1173.999,662.055C1173.999,667.815 1174.815,672.963 1176.447,677.499C1178.079,682.035 1180.383,685.863 1183.359,688.983C1186.335,692.103 1189.899,694.479 1194.051,696.111C1198.203,697.743 1202.823,698.559 1207.911,698.559C1211.367,698.559 1214.451,698.211 1217.163,697.515C1219.875,696.819 1222.527,695.871 1225.119,694.671L1225.119,677.103L1213.311,677.103C1211.919,677.103 1210.827,676.731 1210.035,675.987C1209.243,675.243 1208.847,674.295 1208.847,673.143L1208.847,661.119Z" style="fill:rgb(24,57,120);fill-rule:nonzero;stroke:white;stroke-width:0.46px;"/>
        </g>
    </g>
</svg>
