<?xml version="1.0" encoding="UTF-8" standalone="no"?>
<svg
   xmlns:dc="http://purl.org/dc/elements/1.1/"
   xmlns:cc="http://creativecommons.org/ns#"
   xmlns:rdf="http://www.w3.org/1999/02/22-rdf-syntax-ns#"
   xmlns:svg="http://www.w3.org/2000/svg"
   xmlns="http://www.w3.org/2000/svg"
   xmlns:sodipodi="http://sodipodi.sourceforge.net/DTD/sodipodi-0.dtd"
   xmlns:inkscape="http://www.inkscape.org/namespaces/inkscape"
   version="1.1"
   width="1096.93"
   height="239.334"
   viewBox="0 0 1096.93 239.33"
   enable-background="new 0 0 1096.93 239.33"
   xml:space="preserve"
   id="svg2"
   inkscape:version="0.48.5 r10040"
   sodipodi:docname="logo.svg"><metadata
   id="metadata86"><rdf:RDF><cc:Work
       rdf:about=""><dc:format>image/svg+xml</dc:format><dc:type
         rdf:resource="http://purl.org/dc/dcmitype/StillImage" /></cc:Work></rdf:RDF></metadata><defs
   id="defs84" /><sodipodi:namedview
   pagecolor="#ffffff"
   bordercolor="#666666"
   borderopacity="1"
   objecttolerance="10"
   gridtolerance="10"
   guidetolerance="10"
   inkscape:pageopacity="0"
   inkscape:pageshadow="2"
   inkscape:window-width="2560"
   inkscape:window-height="1417"
   id="namedview82"
   showgrid="false"
   showguides="true"
   inkscape:guide-bbox="true"
   inkscape:zoom="1.3742268"
   inkscape:cx="634.46694"
   inkscape:cy="25.962842"
   inkscape:window-x="-8"
   inkscape:window-y="-8"
   inkscape:window-maximized="1"
   inkscape:current-layer="svg2"><sodipodi:guide
     orientation="1,0"
     position="959.81247,249.5949"
     id="guide3065" /></sodipodi:namedview>
	
	
	
	
	
	
	
	
	
	
	
	
	
	
	<g
   id="g3067"><rect
     id="rect4"
     height="94.9758"
     width="19.7052"
     stroke-linejoin="round"
     stroke-width="0.2"
     fill-opacity="1"
     fill="#1E4173"
     y="51.1428"
     x="0" /><path
     id="path6"
     d="M 126.22,146.119L 126.22,51.1428L 108.622,51.1428L 108.622,101.372C 108.645,105.273 108.737,108.724 108.897,111.726C 109.058,114.728 109.149,116.31 109.172,116.472L 108.897,116.472C 108.839,116.313 107.874,114.653 106.004,111.493C 104.133,108.332 101.706,104.623 98.723,100.366L 63.6273,51.1428L 44.0261,51.1428L 44.0261,146.119L 61.6232,146.119L 61.6232,91.7375C 61.6004,88.499 61.5087,85.5938 61.3483,83.0217C 61.1879,80.4497 61.0963,79.0903 61.0733,78.9438L 61.3483,78.9438C 61.3884,79.0754 62.2435,80.5366 63.9135,83.3274C 65.5836,86.1179 67.8279,89.4487 70.6464,93.3193L 108.485,146.119L 126.22,146.119 Z "
     stroke-linejoin="round"
     stroke-width="0.2"
     fill-opacity="1"
     fill="#1E4173" /><path
     id="path8"
     d="M 203.055,66.7344L 203.055,51.1428L 149.121,51.1428L 149.121,146.119L 168.826,146.119L 168.826,106.353L 198.936,106.353L 198.936,90.761L 168.826,90.761L 168.826,66.7344L 203.055,66.7344 Z "
     stroke-linejoin="round"
     stroke-width="0.2"
     fill-opacity="1"
     fill="#1E4173" /><path
     id="path10"
     d="M 307.769,98.1936C 307.723,84.7798 303.561,73.4458 295.284,64.1917C 287.007,54.9375 274.891,50.1145 258.934,49.7227C 242.97,50.1204 230.828,55.0042 222.509,64.3735C 214.19,73.7429 210.004,85.2102 209.952,98.7756C 210.022,112.265 214.279,123.666 222.722,132.978C 231.166,142.29 243.379,147.144 259.363,147.539C 275.3,147.129 287.345,142.196 295.497,132.742C 303.65,123.287 307.74,111.771 307.769,98.1936 Z M 286.643,98.7756C 286.685,108.063 284.46,115.893 279.967,122.268C 275.474,128.643 268.463,131.963 258.934,132.229C 249.467,131.948 242.473,128.549 237.953,122.031C 233.432,115.514 231.188,107.569 231.221,98.1936C 231.197,88.9187 233.495,81.1367 238.113,74.8477C 242.732,68.5586 249.815,65.2871 259.363,65.033C 268.812,65.3113 275.733,68.6799 280.128,75.1387C 284.522,81.5974 286.694,89.4763 286.643,98.7756 Z "
     stroke-linejoin="round"
     stroke-width="0.2"
     fill-opacity="1"
     fill="#1E4173" /><path
     id="path12"
     d="M 379.881,66.7336L 379.881,51.1428L 307.909,51.1428L 307.909,66.7336L 334.042,66.7336L 334.042,146.119L 353.889,146.119L 353.889,66.7336L 379.881,66.7336 Z "
     stroke-linejoin="round"
     stroke-width="0.2"
     fill-opacity="1"
     fill="#1E4173" /><path
     id="path14"
     d="M 467.79,146.119L 449.501,118.448C 447.005,114.565 444.87,111.586 443.097,109.512C 441.323,107.438 439.796,105.97 438.514,105.108L 438.514,104.828C 444.411,103.834 449.461,101.264 453.666,97.1174C 457.87,92.9709 460.069,86.9006 460.262,78.9067C 460.206,69.7563 457.174,62.8452 451.166,58.1731C 445.158,53.5012 436.511,51.1577 425.225,51.1428L 393.691,51.1428L 393.691,146.119L 413.396,146.119L 413.396,107.773L 414.71,107.773C 416.788,107.589 418.693,108.203 420.424,109.616C 422.155,111.029 424.826,114.348 428.438,119.573L 446.007,146.119L 467.79,146.119 Z M 440.697,80.094C 440.712,84.4292 439.405,87.781 436.776,90.1497C 434.147,92.5181 430.102,93.7178 424.641,93.7488L 413.396,93.7488L 413.396,66.4458L 423.764,66.4458C 429.645,66.4485 433.946,67.5916 436.667,69.8748C 439.387,72.158 440.731,75.5642 440.697,80.094 Z "
     stroke-linejoin="round"
     stroke-width="0.2"
     fill-opacity="1"
     fill="#1E4173" /><path
     id="path16"
     d="M 498.84,129.076L 536.62,129.076L 543.011,146.119L 564.883,146.119L 527.814,51.2761L 508.498,51.2761L 472.423,146.119L 492.591,146.119L 498.84,129.076 Z M 530.939,113.051L 504.521,113.051L 512.475,89.9617C 513.925,85.7085 515.108,81.9099 516.026,78.5662C 516.943,75.2224 517.416,73.457 517.446,73.2698L 517.73,73.2698C 517.757,73.448 518.236,75.1951 519.168,78.5117C 520.1,81.8284 521.325,85.6448 522.843,89.9617L 530.939,113.051 Z "
     stroke-linejoin="round"
     stroke-width="0.2"
     fill-opacity="1"
     fill="#1E4173" /><rect
     id="rect18"
     height="94.9758"
     width="19.7053"
     stroke-linejoin="round"
     stroke-width="0.2"
     fill-opacity="1"
     fill="#1E4173"
     y="51.1428"
     x="579.736" /><path
     id="path20"
     d="M 705.956,146.119L 705.956,51.1428L 688.359,51.1428L 688.359,101.372C 688.382,105.273 688.473,108.724 688.634,111.726C 688.794,114.728 688.886,116.31 688.909,116.472L 688.634,116.472C 688.576,116.313 687.611,114.653 685.74,111.493C 683.869,108.332 681.443,104.623 678.46,100.366L 643.364,51.1428L 623.763,51.1428L 623.763,146.119L 641.36,146.119L 641.36,91.7375C 641.337,88.499 641.245,85.5938 641.085,83.0217C 640.924,80.4497 640.833,79.0903 640.81,78.9438L 641.085,78.9438C 641.125,79.0754 641.98,80.5366 643.65,83.3274C 645.32,86.1179 647.564,89.4487 650.383,93.3193L 688.221,146.119L 705.956,146.119 Z "
     stroke-linejoin="round"
     stroke-width="0.2"
     fill-opacity="1"
     fill="#1E4173" /><rect
     id="rect22"
     height="94.9758"
     width="19.7053"
     stroke-linejoin="round"
     stroke-width="0.2"
     fill-opacity="1"
     fill="#1E4173"
     y="51.1428"
     x="730.277" /><path
     id="path24"
     d="M 856.497,146.119L 856.497,51.1428L 838.9,51.1428L 838.9,101.372C 838.923,105.273 839.014,108.724 839.175,111.726C 839.335,114.728 839.427,116.31 839.45,116.472L 839.175,116.472C 839.116,116.313 838.152,114.653 836.281,111.493C 834.41,108.332 831.983,104.623 829,100.366L 793.905,51.1428L 774.303,51.1428L 774.303,146.119L 791.901,146.119L 791.901,91.7375C 791.878,88.499 791.786,85.5938 791.626,83.0217C 791.465,80.4497 791.374,79.0903 791.351,78.9438L 791.626,78.9438C 791.666,79.0754 792.521,80.5366 794.191,83.3274C 795.861,86.1179 798.105,89.4487 800.924,93.3193L 838.762,146.119L 856.497,146.119 Z "
     stroke-linejoin="round"
     stroke-width="0.2"
     fill-opacity="1"
     fill="#1E4173" /><path
     id="path26"
     d="M 960.172,138.944L 960.172,93.7488L 923.625,93.7488L 923.625,109.193L 941.595,109.193L 941.595,128.326C 941.032,128.737 939.346,129.437 936.537,130.427C 933.727,131.418 929.667,131.973 924.355,132.094C 914.183,131.829 906.732,128.482 902.002,122.052C 897.272,115.622 894.934,107.699 894.989,98.2822C 894.971,88.7761 897.491,80.9807 902.55,74.8962C 907.608,68.8118 915.315,65.6672 925.67,65.4624C 931.17,65.5178 935.741,66.2214 939.386,67.5728C 943.031,68.9241 946.064,70.5901 948.486,72.571L 957.147,57.7813C 954.219,55.5654 950.314,53.6851 945.431,52.1404C 940.548,50.5957 934.107,49.7898 926.109,49.7227C 909.193,50.1086 896.251,54.9746 887.285,64.3206C 878.318,73.6665 873.796,85.176 873.717,98.8491C 873.749,112.189 878.045,123.535 886.605,132.889C 895.165,142.243 907.797,147.126 924.501,147.539C 935.39,147.323 943.594,146.176 949.114,144.097C 954.634,142.019 958.32,140.301 960.172,138.944 Z "
     stroke-linejoin="round"
     stroke-width="0.2"
     fill-opacity="1"
     fill="#1E4173" /><path
     id="path28"
     d="M 998.805,39.6116L 998.805,64.7312L 983.183,64.7312L 983.183,39.6116L 959.04,39.6116L 959.04,25.4097L 983.183,25.4097L 983.183,1L 998.805,1L 998.805,25.4097L 1022.95,25.4097L 1022.95,39.6116L 998.805,39.6116 Z "
     stroke-opacity="1"
     stroke="#1E4173"
     stroke-linejoin="round"
     stroke-width="2"
     fill-opacity="1"
     fill="#FFFFFF" /><path
     id="path30"
     d="M 1071.79,39.6116L 1071.79,64.7312L 1056.17,64.7312L 1056.17,39.6116L 1032.03,39.6116L 1032.03,25.4097L 1056.17,25.4097L 1056.17,1L 1071.79,1L 1071.79,25.4097L 1095.93,25.4097L 1095.93,39.6116L 1071.79,39.6116 Z "
     stroke-opacity="1"
     stroke="#1E4173"
     stroke-linejoin="round"
     stroke-width="2"
     fill-opacity="1"
     fill="#FFFFFF" /><g
     transform="translate(5.0937733,0)"
     id="g32">
		<path
   style="fill:#b5b9be;fill-opacity:1;stroke-width:0.2;stroke-linejoin:round"
   inkscape:connector-curvature="0"
   id="path34"
   d="m 400.559,238.625 5.468,0 0,-17.123 0.146,0 c 0.465,0.91 1.196,1.728 2.191,2.454 0.995,0.725 2.309,1.108 3.943,1.15 2.875,0.071 5.367,-1.244 7.477,-3.945 2.11,-2.702 3.217,-7.216 3.321,-13.545 -0.039,-5.717 -0.956,-10.11 -2.75,-13.18 -1.794,-3.07 -4.233,-4.621 -7.317,-4.653 -1.406,-0.024 -2.757,0.348 -4.052,1.115 -1.295,0.767 -2.423,2.074 -3.385,3.92 l -0.142,0 -0.284,-4.365 -4.9,0 c 0.043,1.174 0.099,2.609 0.168,4.303 0.07,1.695 0.108,3.847 0.116,6.455 l 0,37.414 z m 5.468,-35.129 c -0.024,-0.94 0.024,-1.831 0.146,-2.672 0.216,-1.639 0.806,-3.081 1.771,-4.326 0.965,-1.245 2.103,-1.901 3.414,-1.966 2.208,0.101 3.799,1.4 4.774,3.896 0.976,2.497 1.453,5.583 1.434,9.26 0.036,3.62 -0.402,6.712 -1.315,9.277 -0.913,2.565 -2.52,3.906 -4.82,4.022 -0.819,0.064 -1.737,-0.296 -2.757,-1.081 -1.019,-0.785 -1.829,-2.379 -2.428,-4.782 -0.183,-0.81 -0.256,-1.764 -0.219,-2.86 l 0,-8.768 z" />
		<path
   style="fill:#b5b9be;fill-opacity:1;stroke-width:0.2;stroke-linejoin:round"
   inkscape:connector-curvature="0"
   id="path36"
   d="m 428.963,224.422 5.468,0 0,-18.822 c 0,-1.136 0.071,-2.166 0.213,-3.091 0.306,-2.062 1.043,-3.766 2.21,-5.111 1.167,-1.345 2.632,-2.041 4.394,-2.09 0.414,-0.011 0.793,0.012 1.136,0.071 l 0,-5.592 c -0.343,-0.024 -0.722,-0.047 -1.136,-0.071 -1.629,0.044 -3.093,0.628 -4.394,1.752 -1.3,1.124 -2.25,2.521 -2.849,4.193 l -0.142,0 -0.284,-5.234 -4.9,0 c 0.042,1.293 0.099,2.713 0.168,4.26 0.07,1.547 0.108,3.054 0.116,4.521 l 0,25.214 z" />
		<path
   style="fill:#b5b9be;fill-opacity:1;stroke-width:0.2;stroke-linejoin:round"
   inkscape:connector-curvature="0"
   id="path38"
   d="m 455.005,189.743 c -3.049,-0.058 -5.698,1.303 -7.946,4.082 -2.248,2.779 -3.428,7.324 -3.539,13.634 0.079,6.087 1.164,10.558 3.255,13.411 2.092,2.853 4.717,4.265 7.876,4.236 2.767,0.103 5.324,-1.168 7.672,-3.813 2.347,-2.645 3.594,-7.28 3.743,-13.906 -0.081,-6.055 -1.163,-10.516 -3.247,-13.382 -2.084,-2.866 -4.689,-4.287 -7.814,-4.262 z m -0.213,4.119 c 2.345,0.231 3.903,1.819 4.672,4.766 0.77,2.946 1.125,5.866 1.063,8.759 0.059,2.928 -0.29,5.869 -1.045,8.824 -0.755,2.955 -2.271,4.547 -4.548,4.776 -2.416,-0.207 -4.026,-1.754 -4.831,-4.641 -0.806,-2.887 -1.177,-5.874 -1.115,-8.959 -0.064,-2.893 0.293,-5.813 1.07,-8.759 0.778,-2.947 2.356,-4.535 4.734,-4.766 z" />
		<path
   style="fill:#b5b9be;fill-opacity:1;stroke-width:0.2;stroke-linejoin:round"
   inkscape:connector-curvature="0"
   id="path40"
   d="m 478.812,224.422 0,-29.85 6.249,0 0,-4.119 -6.249,0 0,-2.271 c -0.043,-2.47 0.274,-4.605 0.95,-6.404 0.676,-1.799 1.969,-2.742 3.879,-2.828 1.385,0.05 2.379,0.251 2.982,0.604 l 0.924,-3.951 c -0.995,-0.483 -2.415,-0.74 -4.261,-0.772 -1.095,-0.015 -2.261,0.175 -3.498,0.571 -1.236,0.395 -2.367,1.084 -3.391,2.067 -1.214,1.414 -2.034,3.066 -2.458,4.956 -0.425,1.89 -0.623,3.835 -0.595,5.833 l 0,2.195 -4.332,0 0,4.119 4.332,0 0,29.85 5.468,0 z" />
		<path
   style="fill:#b5b9be;fill-opacity:1;stroke-width:0.2;stroke-linejoin:round"
   inkscape:connector-curvature="0"
   id="path42"
   d="m 508.562,208.028 c 0.062,-0.805 0.086,-1.823 0.074,-3.053 0.029,-4.106 -0.749,-7.636 -2.336,-10.591 -1.586,-2.955 -4.155,-4.502 -7.706,-4.641 -3.529,0.051 -6.357,1.665 -8.484,4.842 -2.127,3.177 -3.219,7.611 -3.274,13.301 0.009,5.378 1.084,9.58 3.226,12.605 2.142,3.025 5.296,4.563 9.461,4.615 1.385,-0.002 2.76,-0.134 4.125,-0.397 1.365,-0.263 2.56,-0.648 3.584,-1.156 l -0.886,-3.934 c -1.464,0.852 -3.404,1.308 -5.822,1.368 -2.089,0.126 -3.951,-0.702 -5.584,-2.484 -1.634,-1.782 -2.513,-5.273 -2.636,-10.475 l 16.258,0 z m -16.187,-4.048 c 0.106,-2.508 0.627,-4.791 1.564,-6.848 0.937,-2.057 2.298,-3.147 4.083,-3.27 1.381,-0.017 2.588,0.793 3.62,2.43 1.033,1.636 1.542,4.199 1.526,7.688 l -10.793,0 z" />
		<path
   style="fill:#b5b9be;fill-opacity:1;stroke-width:0.2;stroke-linejoin:round"
   inkscape:connector-curvature="0"
   id="path44"
   d="m 511.698,223.215 c 0.754,0.581 1.724,1.04 2.911,1.376 1.188,0.336 2.43,0.508 3.727,0.515 2.978,0.013 5.414,-0.806 7.309,-2.455 1.895,-1.65 2.873,-4.206 2.936,-7.668 -0.041,-2.4 -0.696,-4.453 -1.965,-6.157 -1.27,-1.705 -2.913,-3.197 -4.928,-4.476 -1.75,-1.148 -2.942,-2.161 -3.575,-3.038 -0.633,-0.877 -0.931,-1.89 -0.894,-3.038 0,-1.165 0.391,-2.181 1.173,-3.047 0.782,-0.867 1.955,-1.322 3.52,-1.365 1.812,0.072 3.3,0.578 4.462,1.518 l 1.404,-3.976 c -0.664,-0.418 -1.492,-0.795 -2.482,-1.13 -0.99,-0.335 -2.168,-0.512 -3.533,-0.531 -2.796,0.038 -5.054,0.892 -6.773,2.561 -1.719,1.669 -2.603,3.924 -2.653,6.765 0.004,2.003 0.573,3.803 1.708,5.399 1.135,1.595 2.813,3.124 5.036,4.584 1.789,1.163 3.015,2.272 3.678,3.327 0.662,1.055 0.976,2.236 0.94,3.545 -0.016,1.571 -0.487,2.804 -1.415,3.698 -0.928,0.893 -2.219,1.349 -3.873,1.365 -1.119,-0.025 -2.15,-0.227 -3.094,-0.606 -0.943,-0.378 -1.71,-0.779 -2.302,-1.202 l -1.317,4.036 z" />
		<path
   style="fill:#b5b9be;fill-opacity:1;stroke-width:0.2;stroke-linejoin:round"
   inkscape:connector-curvature="0"
   id="path46"
   d="m 529.583,239.334 c 1.117,-0.034 2.381,-0.323 3.791,-0.866 1.41,-0.544 2.655,-1.352 3.737,-2.423 1.201,-1.221 2.083,-2.836 2.645,-4.844 0.562,-2.008 0.84,-4.802 0.835,-8.383 l 0,-32.391 -5.469,0 0,30.818 c 0.008,3.22 -0.113,5.645 -0.364,7.275 -0.25,1.629 -0.673,2.875 -1.269,3.736 -0.592,0.837 -1.308,1.451 -2.148,1.841 -0.84,0.39 -1.663,0.682 -2.468,0.876 l 0.71,4.361 z m 7.953,-61.689 c -0.955,0.014 -1.729,0.336 -2.32,0.964 -0.592,0.628 -0.881,1.475 -0.866,2.542 -0.012,1.066 0.271,1.913 0.848,2.542 0.578,0.628 1.311,0.949 2.2,0.964 2.089,-0.117 3.174,-1.286 3.255,-3.506 -0.104,-2.221 -1.143,-3.39 -3.117,-3.506 z" />
		<path
   style="fill:#b5b9be;fill-opacity:1;stroke-width:0.2;stroke-linejoin:round"
   inkscape:connector-curvature="0"
   id="path48"
   d="m 557.969,189.743 c -3.049,-0.058 -5.698,1.303 -7.946,4.082 -2.248,2.779 -3.428,7.324 -3.539,13.634 0.079,6.087 1.164,10.558 3.256,13.411 2.091,2.853 4.716,4.265 7.875,4.236 2.767,0.103 5.325,-1.168 7.672,-3.813 2.347,-2.645 3.595,-7.28 3.743,-13.906 -0.08,-6.055 -1.162,-10.516 -3.247,-13.382 -2.084,-2.866 -4.689,-4.287 -7.814,-4.262 z m -0.212,4.119 c 2.345,0.231 3.902,1.819 4.672,4.766 0.77,2.946 1.124,5.866 1.062,8.759 0.059,2.928 -0.289,5.869 -1.044,8.824 -0.756,2.955 -2.272,4.547 -4.549,4.776 -2.415,-0.207 -4.026,-1.754 -4.831,-4.641 -0.805,-2.887 -1.177,-5.874 -1.115,-8.959 -0.063,-2.893 0.294,-5.813 1.071,-8.759 0.777,-2.947 2.355,-4.535 4.734,-4.766 z" />
		<path
   style="fill:#b5b9be;fill-opacity:1;stroke-width:0.2;stroke-linejoin:round"
   inkscape:connector-curvature="0"
   id="path50"
   d="m 574.888,224.422 5.468,0 0,-21.351 c 0,-1.144 0.071,-2.147 0.213,-3.011 0.385,-1.823 1.053,-3.199 2.006,-4.129 0.953,-0.93 2.012,-1.397 3.177,-1.399 1.938,0.086 3.228,0.928 3.87,2.528 0.642,1.599 0.938,3.439 0.888,5.52 l 0,21.842 5.468,0 0,-22.752 c -0.049,-4.098 -0.839,-7.108 -2.37,-9.031 -1.531,-1.923 -3.511,-2.875 -5.939,-2.856 -1.819,0.023 -3.399,0.47 -4.739,1.342 -1.34,0.871 -2.388,2.03 -3.142,3.475 l -0.142,0 -0.284,-4.111 -4.758,0 c 0.043,1.329 0.099,2.644 0.169,3.945 0.069,1.301 0.108,2.921 0.115,4.86 l 0,25.128 z" />
		<path
   style="fill:#b5b9be;fill-opacity:1;stroke-width:0.2;stroke-linejoin:round"
   inkscape:connector-curvature="0"
   id="path52"
   d="m 622.607,224.422 c -0.17,-1.054 -0.274,-2.254 -0.311,-3.598 -0.037,-1.345 -0.051,-2.697 -0.044,-4.058 l 0,-15.142 c 0.018,-3.8 -0.774,-6.725 -2.376,-8.773 -1.602,-2.049 -4.124,-3.085 -7.566,-3.108 -1.738,0.027 -3.332,0.26 -4.784,0.7 -1.451,0.441 -2.558,0.927 -3.321,1.46 l 1.239,3.691 c 1.684,-1.097 3.594,-1.675 5.73,-1.732 2.123,0.036 3.575,0.743 4.358,2.122 0.782,1.379 1.152,3.213 1.109,5.501 l 0,1.04 c -4.001,0.018 -7.43,1.066 -10.287,3.144 -2.856,2.077 -4.351,5.294 -4.482,9.651 0.055,3.037 0.856,5.42 2.405,7.147 1.549,1.727 3.517,2.607 5.903,2.639 2.982,-0.08 5.255,-1.43 6.82,-4.05 l 0.216,0 0.359,3.366 5.032,0 z m -5.823,-10.679 c 0.024,0.616 -0.024,1.267 -0.143,1.956 -0.341,1.741 -0.972,3.058 -1.89,3.948 -0.919,0.89 -1.993,1.337 -3.222,1.34 -1.013,0.026 -1.951,-0.442 -2.813,-1.404 -0.863,-0.961 -1.321,-2.57 -1.376,-4.826 0.216,-3.666 1.435,-5.969 3.657,-6.909 2.221,-0.941 4.151,-1.342 5.787,-1.204 l 0,7.099 z" />
		<rect
   style="fill:#b5b9be;fill-opacity:1;stroke-width:0.2;stroke-linejoin:round"
   id="rect54"
   height="48.908001"
   width="5.46808"
   y="175.51401"
   x="629.56598" />
		<path
   style="fill:#b5b9be;fill-opacity:1;stroke-width:0.2;stroke-linejoin:round"
   inkscape:connector-curvature="0"
   id="path56"
   d="m 643.057,224.422 5.469,0 0,-21.351 c 0,-1.144 0.071,-2.147 0.213,-3.011 0.384,-1.823 1.053,-3.199 2.005,-4.129 0.953,-0.93 2.012,-1.397 3.178,-1.399 1.938,0.086 3.228,0.928 3.87,2.528 0.642,1.599 0.938,3.439 0.888,5.52 l 0,21.842 5.468,0 0,-22.752 c -0.049,-4.098 -0.839,-7.108 -2.37,-9.031 -1.532,-1.923 -3.511,-2.875 -5.939,-2.856 -1.82,0.023 -3.399,0.47 -4.74,1.342 -1.34,0.871 -2.387,2.03 -3.142,3.475 l -0.142,0 -0.284,-4.111 -4.758,0 c 0.043,1.329 0.099,2.644 0.169,3.945 0.07,1.301 0.108,2.921 0.115,4.86 l 0,25.128 z" />
		<path
   style="fill:#b5b9be;fill-opacity:1;stroke-width:0.2;stroke-linejoin:round"
   inkscape:connector-curvature="0"
   id="path58"
   d="m 692.478,208.028 c 0.061,-0.805 0.086,-1.823 0.074,-3.053 0.029,-4.106 -0.75,-7.636 -2.336,-10.591 -1.587,-2.955 -4.155,-4.502 -7.706,-4.641 -3.529,0.051 -6.357,1.665 -8.484,4.842 -2.127,3.177 -3.219,7.611 -3.275,13.301 0.009,5.378 1.085,9.58 3.227,12.605 2.142,3.025 5.295,4.563 9.461,4.615 1.385,-0.002 2.76,-0.134 4.125,-0.397 1.365,-0.263 2.56,-0.648 3.584,-1.156 l -0.887,-3.934 c -1.463,0.852 -3.403,1.308 -5.821,1.368 -2.09,0.126 -3.951,-0.702 -5.585,-2.484 -1.633,-1.782 -2.512,-5.273 -2.636,-10.475 l 16.259,0 z m -16.187,-4.048 c 0.106,-2.508 0.627,-4.791 1.564,-6.848 0.936,-2.057 2.297,-3.147 4.083,-3.27 1.381,-0.017 2.587,0.793 3.62,2.43 1.033,1.636 1.541,4.199 1.526,7.688 l -10.793,0 z" />
		<path
   style="fill:#b5b9be;fill-opacity:1;stroke-width:0.2;stroke-linejoin:round"
   inkscape:connector-curvature="0"
   id="path60"
   d="m 706.975,223.215 c 0.754,0.581 1.724,1.04 2.911,1.376 1.188,0.336 2.43,0.508 3.728,0.515 2.977,0.013 5.414,-0.806 7.308,-2.455 1.895,-1.65 2.874,-4.206 2.936,-7.668 -0.04,-2.4 -0.695,-4.453 -1.965,-6.157 -1.27,-1.705 -2.912,-3.197 -4.928,-4.476 -1.75,-1.148 -2.942,-2.161 -3.575,-3.038 -0.633,-0.877 -0.931,-1.89 -0.894,-3.038 0,-1.165 0.391,-2.181 1.173,-3.047 0.783,-0.867 1.956,-1.322 3.52,-1.365 1.812,0.072 3.3,0.578 4.462,1.518 l 1.404,-3.976 c -0.664,-0.418 -1.492,-0.795 -2.482,-1.13 -0.99,-0.335 -2.168,-0.512 -3.533,-0.531 -2.796,0.038 -5.053,0.892 -6.773,2.561 -1.719,1.669 -2.603,3.924 -2.653,6.765 0.004,2.003 0.573,3.803 1.708,5.399 1.135,1.595 2.814,3.124 5.036,4.584 1.79,1.163 3.015,2.272 3.678,3.327 0.662,1.055 0.976,2.236 0.94,3.545 -0.015,1.571 -0.487,2.804 -1.415,3.698 -0.928,0.893 -2.219,1.349 -3.873,1.365 -1.119,-0.025 -2.15,-0.227 -3.094,-0.606 -0.943,-0.378 -1.71,-0.779 -2.301,-1.202 l -1.318,4.036 z" />
		<path
   style="fill:#b5b9be;fill-opacity:1;stroke-width:0.2;stroke-linejoin:round"
   inkscape:connector-curvature="0"
   id="path62"
   d="m 726.849,224.396 19.671,0 0,-4.119 -13.493,0 0,-0.144 c 0.852,-1.625 1.775,-3.358 2.77,-5.199 l 10.758,-21.199 0,-3.282 -18.322,0 0,4.119 12.286,0 0,0.144 c -0.852,1.625 -1.775,3.358 -2.77,5.199 l -10.865,21.456 -0.035,3.025 z" />
		<path
   style="fill:#b5b9be;fill-opacity:1;stroke-width:0.2;stroke-linejoin:round"
   inkscape:connector-curvature="0"
   id="path64"
   d="m 757.171,175.514 -5.468,0 0,48.908 5.468,0 0,-12.852 1.917,-3.161 7.457,16.013 6.107,0 -9.871,-19.665 9.09,-14.33 -5.895,0 -6.817,12.012 c -0.615,1.159 -1.231,2.423 -1.846,3.793 l -0.142,0 0,-30.718 z" />
		<path
   style="fill:#b5b9be;fill-opacity:1;stroke-width:0.2;stroke-linejoin:round"
   inkscape:connector-curvature="0"
   id="path66"
   d="m 784.846,189.743 c -3.049,-0.058 -5.698,1.303 -7.946,4.082 -2.248,2.779 -3.428,7.324 -3.539,13.634 0.079,6.087 1.164,10.558 3.255,13.411 2.092,2.853 4.717,4.265 7.876,4.236 2.767,0.103 5.324,-1.168 7.672,-3.813 2.347,-2.645 3.594,-7.28 3.743,-13.906 -0.081,-6.055 -1.163,-10.516 -3.247,-13.382 -2.084,-2.866 -4.689,-4.287 -7.814,-4.262 z m -0.213,4.119 c 2.345,0.231 3.903,1.819 4.672,4.766 0.77,2.946 1.125,5.866 1.063,8.759 0.058,2.928 -0.29,5.869 -1.045,8.824 -0.755,2.955 -2.271,4.547 -4.548,4.776 -2.416,-0.207 -4.026,-1.754 -4.831,-4.641 -0.806,-2.887 -1.177,-5.874 -1.115,-8.959 -0.064,-2.893 0.293,-5.813 1.07,-8.759 0.778,-2.947 2.356,-4.535 4.734,-4.766 z" />
		<rect
   style="fill:#b5b9be;fill-opacity:1;stroke-width:0.2;stroke-linejoin:round"
   id="rect68"
   height="48.908001"
   width="5.46802"
   y="175.51401"
   x="801.76501" />
		<path
   style="fill:#b5b9be;fill-opacity:1;stroke-width:0.2;stroke-linejoin:round"
   inkscape:connector-curvature="0"
   id="path70"
   d="m 835.563,208.028 c 0.061,-0.805 0.086,-1.823 0.074,-3.053 0.029,-4.106 -0.75,-7.636 -2.336,-10.591 -1.587,-2.955 -4.155,-4.502 -7.706,-4.641 -3.529,0.051 -6.357,1.665 -8.484,4.842 -2.127,3.177 -3.219,7.611 -3.275,13.301 0.009,5.378 1.085,9.58 3.227,12.605 2.142,3.025 5.295,4.563 9.461,4.615 1.385,-0.002 2.76,-0.134 4.125,-0.397 1.365,-0.263 2.559,-0.648 3.584,-1.156 l -0.887,-3.934 c -1.463,0.852 -3.403,1.308 -5.821,1.368 -2.09,0.126 -3.951,-0.702 -5.585,-2.484 -1.633,-1.782 -2.512,-5.273 -2.636,-10.475 l 16.259,0 z m -16.187,-4.048 c 0.106,-2.508 0.627,-4.791 1.563,-6.848 0.937,-2.057 2.298,-3.147 4.084,-3.27 1.381,-0.017 2.587,0.793 3.62,2.43 1.033,1.636 1.541,4.199 1.526,7.688 l -10.793,0 z" />
		<path
   style="fill:#b5b9be;fill-opacity:1;stroke-width:0.2;stroke-linejoin:round"
   inkscape:connector-curvature="0"
   id="path72"
   d="m 840.82,224.422 5.468,0 0,-21.351 c 0,-1.144 0.071,-2.147 0.213,-3.011 0.385,-1.823 1.053,-3.199 2.006,-4.129 0.953,-0.93 2.012,-1.397 3.177,-1.399 1.938,0.086 3.228,0.928 3.87,2.528 0.643,1.599 0.938,3.439 0.888,5.52 l 0,21.842 5.468,0 0,-22.752 c -0.049,-4.098 -0.839,-7.108 -2.37,-9.031 -1.531,-1.923 -3.511,-2.875 -5.939,-2.856 -1.819,0.023 -3.399,0.47 -4.739,1.342 -1.34,0.871 -2.388,2.03 -3.142,3.475 l -0.142,0 -0.284,-4.111 -4.758,0 c 0.043,1.329 0.099,2.644 0.169,3.945 0.069,1.301 0.108,2.921 0.115,4.86 l 0,25.128 z" />
		<path
   style="fill:#b5b9be;fill-opacity:1;stroke-width:0.2;stroke-linejoin:round"
   inkscape:connector-curvature="0"
   id="path74"
   d="m 875.402,224.422 0,-33.995 -5.468,0 0,33.995 5.468,0 z m -2.413,-46.777 c -0.888,0.014 -1.624,0.336 -2.208,0.964 -0.584,0.628 -0.887,1.475 -0.909,2.542 0.019,1.066 0.31,1.913 0.874,2.542 0.565,0.628 1.289,0.949 2.173,0.964 2.125,-0.117 3.21,-1.286 3.255,-3.506 -0.092,-2.221 -1.154,-3.39 -3.185,-3.506 z" />
		<path
   style="fill:#b5b9be;fill-opacity:1;stroke-width:0.2;stroke-linejoin:round"
   inkscape:connector-curvature="0"
   id="path76"
   d="m 901.321,224.422 c -0.17,-1.054 -0.274,-2.254 -0.311,-3.598 -0.037,-1.345 -0.052,-2.697 -0.044,-4.058 l 0,-15.142 c 0.018,-3.8 -0.774,-6.725 -2.376,-8.773 -1.602,-2.049 -4.124,-3.085 -7.566,-3.108 -1.738,0.027 -3.332,0.26 -4.784,0.7 -1.452,0.441 -2.559,0.927 -3.321,1.46 l 1.239,3.691 c 1.684,-1.097 3.593,-1.675 5.73,-1.732 2.122,0.036 3.575,0.743 4.358,2.122 0.782,1.379 1.152,3.213 1.109,5.501 l 0,1.04 c -4.001,0.018 -7.43,1.066 -10.287,3.144 -2.857,2.077 -4.351,5.294 -4.482,9.651 0.054,3.037 0.856,5.42 2.405,7.147 1.549,1.727 3.517,2.607 5.903,2.639 2.981,-0.08 5.255,-1.43 6.82,-4.05 l 0.215,0 0.36,3.366 5.032,0 z m -5.823,-10.679 c 0.023,0.616 -0.024,1.267 -0.143,1.956 -0.342,1.741 -0.972,3.058 -1.89,3.948 -0.919,0.89 -1.993,1.337 -3.222,1.34 -1.014,0.026 -1.951,-0.442 -2.814,-1.404 -0.862,-0.961 -1.321,-2.57 -1.375,-4.826 0.216,-3.666 1.435,-5.969 3.656,-6.909 2.222,-0.941 4.151,-1.342 5.788,-1.204 l 0,7.099 z" />
		<rect
   style="fill:#b5b9be;fill-opacity:1;stroke-width:0.2;stroke-linejoin:round"
   id="rect78"
   height="47.487801"
   width="5.4681401"
   y="176.935"
   x="920.35101" />
		<path
   style="fill:#b5b9be;fill-opacity:1;stroke-width:0.2;stroke-linejoin:round"
   inkscape:connector-curvature="0"
   id="path80"
   d="m 940.234,224.422 5.468,0 0,-42.606 8.735,0 0,-4.881 -22.938,0 0,4.881 8.735,0 0,42.606 z" />
	</g></g>
</svg>